<svg width="80" height="116" viewBox="0 0 80 116" fill="none" xmlns="http://www.w3.org/2000/svg">
<path d="M37.5437 0.101187C35.3901 0.301378 34.329 0.427815 33.184 0.628006C19.8315 2.94601 8.54865 11.923 3.19086 24.4929C0.701069 30.309 -0.423016 37.3578 0.144279 43.5111C0.806123 50.6863 2.98075 56.8291 6.9203 62.7294C7.42456 63.4775 9.06342 66.0695 10.5447 68.4718C13.9905 74.035 14.5052 74.8673 16.6379 78.3233C17.6149 79.8827 19.0751 82.2533 19.8945 83.5915C20.714 84.919 22.4894 87.7955 23.8341 89.966C27.8157 96.4037 31.4295 102.251 35.7473 109.248C37.9849 112.872 39.8759 115.896 39.9495 115.97C40.065 116.086 40.2226 115.896 40.8214 114.916C41.2311 114.263 42.849 111.639 44.4248 109.089C48.5219 102.473 49.0997 101.524 49.8351 100.344C50.1923 99.7648 51.9677 96.8989 53.7747 93.9698C55.5816 91.0407 57.4726 87.9851 57.9768 87.1738C58.4811 86.3625 59.9414 83.9918 61.2335 81.9056C62.5257 79.8194 63.8704 77.6384 64.2276 77.0589C64.5848 76.4794 66.5808 73.2553 68.6609 69.8942C70.741 66.5331 72.7895 63.2562 73.2308 62.6241C76.7081 57.5034 78.9457 51.5082 79.7967 45.0283C80.0908 42.7524 80.0593 37.1998 79.7442 35.0187C79.0298 30.1299 77.8952 26.3789 75.9097 22.3646C71.0877 12.6395 62.7253 5.40099 52.3879 1.99774C47.713 0.469961 41.7774 -0.288659 37.5437 0.101187Z" fill="#005EB8"/>
<path fill-rule="evenodd" clip-rule="evenodd" d="M49.1045 14.2657C50.2426 16.1089 52.3925 19.5906 53.3726 23.5109C54.6865 29.0292 54.6865 32.1825 54.1609 35.8613C53.1098 42.6934 49.6938 47.6861 48.3799 49.5255C47.5916 48.4745 46.0149 46.1095 44.9638 43.7445C44.9638 43.7445 43.1244 39.5401 42.5989 35.3358C42.0733 31.1314 42.0733 26.927 43.65 22.1971C44.9638 17.9927 47.5916 14.0511 48.3799 13C48.4466 13.2003 48.7169 13.638 49.1045 14.2657ZM46.5405 41.6423C46.8032 44.7956 47.8543 47.1606 48.3799 48.2117C49.1682 47.1606 50.2193 44.5328 49.9565 41.3796C49.9565 38.1548 48.7857 35.8667 48.4335 35.1784C48.4126 35.1376 48.3946 35.1024 48.3799 35.073C47.8543 35.5985 46.5405 38.489 46.5405 41.6423ZM52.5843 38.2263C52.847 36.9124 53.1098 34.8102 53.1098 32.708C53.1098 30.6058 52.847 27.1898 51.7959 23.5109C50.9045 20.391 49.2571 17.46 48.6169 16.3209C48.5022 16.1169 48.4198 15.9703 48.3799 15.8905C48.3423 15.9656 48.278 16.0836 48.1907 16.2437C47.6666 17.2044 46.3152 19.682 44.9638 23.5109C44.4383 24.8248 43.65 27.7153 43.65 30.6058C43.3872 34.0219 43.9127 37.1752 44.1755 38.2263C44.1755 37.1752 44.1755 33.4964 44.9638 30.3431C45.7521 27.1898 47.3288 23.7737 48.3799 21.9343C49.6938 23.7737 51.2704 27.9781 51.7959 30.3431C52.3215 32.9708 52.5843 35.8613 52.5843 38.2263ZM40.4964 51.1023H56V65.0293C52.3212 68.9709 46.8029 71.3359 40.7591 71.3359C29.4599 71.3359 20 62.4016 20 51.3651C20 40.3286 29.1971 31.3943 40.7591 31.3943V46.3724C37.6058 46.3724 34.7153 47.4235 32.3504 49.5256C32.0876 49.7884 31.8905 50.0512 31.6934 50.314C31.4963 50.5767 31.2993 50.8395 31.0365 51.1023C27.8832 55.5694 28.4088 61.3505 32.3504 65.2921C34.7153 67.3943 37.8686 68.4454 40.7591 68.4454C43.6496 68.4454 46.5401 67.3943 48.9051 65.2921C51.2701 63.1899 51.2701 59.511 48.9051 57.4089C46.5401 55.3067 42.8613 55.3067 40.4964 57.4089V51.1023Z" fill="white"/>
</svg>
