<svg width="80" height="116" viewBox="0 0 80 116" fill="none" xmlns="http://www.w3.org/2000/svg">
<path d="M37.5437 0.101189C35.3901 0.30138 34.329 0.427815 33.184 0.628006C19.8315 2.94601 8.54865 11.923 3.19086 24.4929C0.701069 30.309 -0.423016 37.3578 0.144279 43.5111C0.806123 50.6863 2.98075 56.8291 6.9203 62.7294C7.42456 63.4775 9.06342 66.0695 10.5447 68.4718C13.9905 74.035 14.5052 74.8673 16.6379 78.3233C17.6149 79.8827 19.0751 82.2533 19.8945 83.5915C20.714 84.919 22.4894 87.7955 23.8341 89.966C27.8157 96.4037 31.4295 102.251 35.7473 109.248C37.985 112.872 39.8759 115.896 39.9495 115.97C40.065 116.086 40.2226 115.896 40.8214 114.916C41.2311 114.263 42.849 111.639 44.4248 109.089C48.5219 102.473 49.0997 101.524 49.8351 100.344C50.1923 99.7648 51.9677 96.8989 53.7747 93.9698C55.5816 91.0407 57.4726 87.9851 57.9768 87.1738C58.4811 86.3625 59.9414 83.9918 61.2335 81.9056C62.5257 79.8194 63.8704 77.6384 64.2276 77.0589C64.5848 76.4794 66.5808 73.2553 68.6609 69.8942C70.741 66.5331 72.7895 63.2562 73.2308 62.6241C76.7081 57.5034 78.9457 51.5082 79.7967 45.0283C80.0908 42.7524 80.0593 37.1998 79.7442 35.0187C79.0298 30.1299 77.8952 26.3789 75.9097 22.3646C71.0877 12.6395 62.7253 5.40098 52.3879 1.99773C47.713 0.469959 41.7774 -0.288657 37.5437 0.101189Z" fill="#ED1A3A"/>
<g clip-path="url(#clip0_1241_60)">
<rect width="50" height="50" transform="translate(15 17)" fill="white"/>
<path d="M65.0257 17H15V67H65.0257V17Z" fill="#ED1A3A"/>
<path d="M56.9393 21.9814C55.7902 21.9814 54.9194 22.7432 54.485 23.659L48.1941 34.024C47.7661 34.9827 47.4387 36.059 47.4387 36.7715C47.4218 37.3585 47.5313 37.9423 47.7597 38.4833L54.5727 54.7456H28.1145C27.1623 54.7456 26.377 53.7891 26.377 52.9075V24.8958C26.1758 21.0656 20.6659 21.0656 20.5439 25.0177L20.6638 54.7605C20.6638 57.9937 23.1652 60.585 26.3748 60.585H62.4492L53.6569 38.096C53.4151 37.2594 53.306 36.4998 53.8987 35.5026L59.721 26.047C59.8312 25.6313 59.8985 25.2054 59.9221 24.776C59.8002 23.0599 58.4543 21.9044 56.9393 21.9814ZM42.6563 21.9943C41.2419 21.9943 39.8276 22.9807 39.8276 24.8958V44.9497C39.8276 47.8619 35.9096 47.6223 35.9096 44.9497V24.8958C35.9096 21.0656 30.2392 21.0656 30.2392 24.8958V45.1102C30.2392 49.7321 33.6928 52.8134 37.8162 52.8134C42.0508 52.8134 45.4937 49.7406 45.4937 45.1102V24.8958C45.5001 22.9422 44.0793 21.9857 42.6649 21.9943H42.6563Z" fill="white"/>
</g>
<defs>
<clipPath id="clip0_1241_60">
<rect width="50" height="50" fill="white" transform="translate(15 17)"/>
</clipPath>
</defs>
</svg>
