<svg width="80" height="116" viewBox="0 0 80 116" fill="none" xmlns="http://www.w3.org/2000/svg">
<path d="M37.5437 0.101187C35.3901 0.301378 34.329 0.427815 33.184 0.628006C19.8315 2.94601 8.54865 11.923 3.19086 24.4929C0.701069 30.309 -0.423016 37.3578 0.144279 43.5111C0.806123 50.6863 2.98075 56.8291 6.9203 62.7294C7.42456 63.4775 9.06342 66.0695 10.5447 68.4718C13.9905 74.035 14.5052 74.8673 16.6379 78.3233C17.6149 79.8827 19.0751 82.2533 19.8945 83.5915C20.714 84.919 22.4894 87.7955 23.8341 89.966C27.8157 96.4037 31.4295 102.251 35.7473 109.248C37.9849 112.872 39.8759 115.896 39.9495 115.97C40.065 116.086 40.2226 115.896 40.8214 114.916C41.2311 114.263 42.849 111.639 44.4248 109.089C48.5219 102.473 49.0997 101.524 49.8351 100.344C50.1923 99.7648 51.9677 96.8989 53.7747 93.9698C55.5816 91.0407 57.4726 87.9851 57.9768 87.1738C58.4811 86.3625 59.9414 83.9918 61.2335 81.9056C62.5257 79.8194 63.8704 77.6384 64.2276 77.0589C64.5848 76.4794 66.5808 73.2553 68.6609 69.8942C70.741 66.5331 72.7895 63.2562 73.2308 62.6241C76.7081 57.5034 78.9457 51.5082 79.7967 45.0283C80.0908 42.7524 80.0593 37.1998 79.7442 35.0187C79.0298 30.1299 77.8952 26.3789 75.9097 22.3646C71.0877 12.6395 62.7253 5.40099 52.3879 1.99774C47.713 0.469961 41.7774 -0.288659 37.5437 0.101187Z" fill="#0078D1"/>
<path d="M72.5438 31.2438C69.5507 21.9734 52.5445 18.3255 34.5693 23.0961C16.5952 27.8663 4.45436 39.2493 7.45567 48.5193C10.4527 57.7873 27.4569 61.4341 45.4253 56.6673C63.4063 51.8963 75.5471 40.5128 72.5438 31.2438Z" fill="white"/>
<path fill-rule="evenodd" clip-rule="evenodd" d="M27.1462 36.8445C27.1462 33.0383 25.2746 31.7339 22.4729 31.7339C19.7132 31.7339 17.7432 33.0816 17.7432 36.8445V42.2619C17.7432 46.0262 19.7132 47.2894 22.4729 47.2894C25.2746 47.2894 27.1462 46.0677 27.1462 42.2619V36.8445ZM20.5622 42.6148V36.5136C20.5622 34.921 21.1696 34.0093 22.4729 34.0093C23.6614 34.0093 24.3272 34.961 24.3272 36.554V42.6148C24.3272 44.185 23.6614 45.0134 22.4729 45.0134C21.1696 45.0134 20.5622 44.1655 20.5622 42.6148Z" fill="#0078D1"/>
<path d="M38.5696 32.4106V47.2899H35.7395V34.6757H31.999V47.2899H29.1665V32.4106H38.5696Z" fill="#0078D1"/>
<path d="M45.721 47.2899H42.8248V34.6752H39.2358V32.4106H49.3105V34.6752H45.721V47.2899Z" fill="#0078D1"/>
<path d="M53.9501 32.4106V42.3795L57.7117 32.4106H60.7356V47.2899H58.1194V37.3463L54.3583 47.2899H51.3325V32.4106H53.9501Z" fill="#0078D1"/>
</svg>
