<svg width="80" height="116" viewBox="0 0 80 116" fill="none" xmlns="http://www.w3.org/2000/svg">
<path d="M37.5437 0.101187C35.3901 0.301378 34.329 0.427815 33.184 0.628006C19.8315 2.94601 8.54865 11.923 3.19086 24.4929C0.701069 30.309 -0.423016 37.3578 0.144279 43.5111C0.806123 50.6863 2.98075 56.8291 6.9203 62.7294C7.42456 63.4775 9.06342 66.0695 10.5447 68.4718C13.9905 74.035 14.5052 74.8673 16.6379 78.3233C17.6149 79.8827 19.0751 82.2533 19.8945 83.5915C20.714 84.919 22.4894 87.7955 23.8341 89.966C27.8157 96.4037 31.4295 102.251 35.7473 109.248C37.9849 112.872 39.8759 115.896 39.9495 115.97C40.065 116.086 40.2226 115.896 40.8214 114.916C41.2311 114.263 42.849 111.639 44.4248 109.089C48.5219 102.473 49.0997 101.524 49.8351 100.344C50.1923 99.7648 51.9677 96.8989 53.7747 93.9698C55.5816 91.0407 57.4726 87.9851 57.9768 87.1738C58.4811 86.3625 59.9414 83.9918 61.2335 81.9056C62.5257 79.8194 63.8704 77.6384 64.2276 77.0589C64.5848 76.4794 66.5808 73.2553 68.6609 69.8942C70.741 66.5331 72.7895 63.2562 73.2308 62.6241C76.7081 57.5034 78.9457 51.5082 79.7967 45.0283C80.0908 42.7524 80.0593 37.1998 79.7442 35.0187C79.0298 30.1299 77.8952 26.3789 75.9097 22.3646C71.0877 12.6395 62.7253 5.40099 52.3879 1.99774C47.713 0.469961 41.7774 -0.288659 37.5437 0.101187Z" fill="#3F4043"/>
<mask id="path-2-outside-1_1238_32" maskUnits="userSpaceOnUse" x="19" y="15" width="42" height="58" fill="black">
<rect fill="white" x="19" y="15" width="42" height="58"/>
<path fill-rule="evenodd" clip-rule="evenodd" d="M22 33.1551H26.4917V48.4856L22 44.4942V33.1551Z"/>
<path fill-rule="evenodd" clip-rule="evenodd" d="M27.3686 28.1055H31.6802V53.4509L27.3686 49.278V28.1055Z"/>
<path fill-rule="evenodd" clip-rule="evenodd" d="M32.5631 23.0495H36.9648V47.0644H32.5631V23.0495Z"/>
<path fill-rule="evenodd" clip-rule="evenodd" d="M37.8412 18H42.417V42.1056H37.8412V18Z"/>
<path fill-rule="evenodd" clip-rule="evenodd" d="M43.0346 22.7838H47.4363V47.0647H43.0346V22.7838Z"/>
<path fill-rule="evenodd" clip-rule="evenodd" d="M48.4938 28.0085H52.8054V49.1931L48.4938 53.4506V28.0085Z"/>
<path fill-rule="evenodd" clip-rule="evenodd" d="M53.5924 33.0642H58V44.1434L53.5924 48.4855V33.0642Z"/>
<path fill-rule="evenodd" clip-rule="evenodd" d="M32.5631 47.6027H36.9648V69.8395H32.5631V47.6027Z"/>
<path fill-rule="evenodd" clip-rule="evenodd" d="M37.8412 42.8189H42.1527V69.8394H37.8412V42.8189Z"/>
<path fill-rule="evenodd" clip-rule="evenodd" d="M43.0346 47.6876H47.4363V69.8398H43.0346V47.6876Z"/>
</mask>
<path fill-rule="evenodd" clip-rule="evenodd" d="M22 33.1551H26.4917V48.4856L22 44.4942V33.1551Z" fill="#3F4043"/>
<path fill-rule="evenodd" clip-rule="evenodd" d="M27.3686 28.1055H31.6802V53.4509L27.3686 49.278V28.1055Z" fill="#3F4043"/>
<path fill-rule="evenodd" clip-rule="evenodd" d="M32.5631 23.0495H36.9648V47.0644H32.5631V23.0495Z" fill="#3F4043"/>
<path fill-rule="evenodd" clip-rule="evenodd" d="M37.8412 18H42.417V42.1056H37.8412V18Z" fill="#3F4043"/>
<path fill-rule="evenodd" clip-rule="evenodd" d="M43.0346 22.7838H47.4363V47.0647H43.0346V22.7838Z" fill="#3F4043"/>
<path fill-rule="evenodd" clip-rule="evenodd" d="M48.4938 28.0085H52.8054V49.1931L48.4938 53.4506V28.0085Z" fill="#3F4043"/>
<path fill-rule="evenodd" clip-rule="evenodd" d="M53.5924 33.0642H58V44.1434L53.5924 48.4855V33.0642Z" fill="#3F4043"/>
<path fill-rule="evenodd" clip-rule="evenodd" d="M32.5631 47.6027H36.9648V69.8395H32.5631V47.6027Z" fill="#FECF02"/>
<path fill-rule="evenodd" clip-rule="evenodd" d="M37.8412 42.8189H42.1527V69.8394H37.8412V42.8189Z" fill="#FECF02"/>
<path fill-rule="evenodd" clip-rule="evenodd" d="M43.0346 47.6876H47.4363V69.8398H43.0346V47.6876Z" fill="#FECF02"/>
<path d="M22 33.1551V30.1551H19V33.1551H22ZM26.4917 33.1551H29.4917V30.1551H26.4917V33.1551ZM26.4917 48.4856L24.499 50.7282L29.4917 55.1648V48.4856H26.4917ZM22 44.4942H19V45.8417L20.0073 46.7368L22 44.4942ZM27.3686 28.1055V25.1055H24.3686V28.1055H27.3686ZM31.6802 28.1055H34.6802V25.1055H31.6802V28.1055ZM31.6802 53.4509L29.5938 55.6066L34.6802 60.5293V53.4509H31.6802ZM27.3686 49.278H24.3686V50.5495L25.2823 51.4338L27.3686 49.278ZM32.5631 23.0495V20.0495H29.5631V23.0495H32.5631ZM36.9648 23.0495H39.9648V20.0495H36.9648V23.0495ZM36.9648 47.0644V50.0644H39.9648V47.0644H36.9648ZM32.5631 47.0644H29.5631V50.0644H32.5631V47.0644ZM37.8412 18V15H34.8412V18H37.8412ZM42.417 18H45.417V15H42.417V18ZM42.417 42.1056V45.1056H45.417V42.1056H42.417ZM37.8412 42.1056H34.8412V45.1056H37.8412V42.1056ZM43.0346 22.7838V19.7838H40.0346V22.7838H43.0346ZM47.4363 22.7838H50.4363V19.7838H47.4363V22.7838ZM47.4363 47.0647V50.0647H50.4363V47.0647H47.4363ZM43.0346 47.0647H40.0346V50.0647H43.0346V47.0647ZM48.4938 28.0085V25.0085H45.4938V28.0085H48.4938ZM52.8054 28.0085H55.8054V25.0085H52.8054V28.0085ZM52.8054 49.1931L54.9132 51.3278L55.8054 50.4469V49.1931H52.8054ZM48.4938 53.4506H45.4938V60.6291L50.6017 55.5853L48.4938 53.4506ZM53.5924 33.0642V30.0642H50.5924V33.0642H53.5924ZM58 33.0642H61V30.0642H58V33.0642ZM58 44.1434L60.1054 46.2805L61 45.3992V44.1434H58ZM53.5924 48.4855H50.5924V55.6522L55.6978 50.6227L53.5924 48.4855ZM32.5631 47.6027V44.6027H29.5631V47.6027H32.5631ZM36.9648 47.6027H39.9648V44.6027H36.9648V47.6027ZM36.9648 69.8395V72.8395H39.9648V69.8395H36.9648ZM32.5631 69.8395H29.5631V72.8395H32.5631V69.8395ZM37.8412 42.8189V39.8189H34.8412V42.8189H37.8412ZM42.1527 42.8189H45.1527V39.8189H42.1527V42.8189ZM42.1527 69.8394V72.8394H45.1527V69.8394H42.1527ZM37.8412 69.8394H34.8412V72.8394H37.8412V69.8394ZM43.0346 47.6876V44.6876H40.0346V47.6876H43.0346ZM47.4363 47.6876H50.4363V44.6876H47.4363V47.6876ZM47.4363 69.8398V72.8398H50.4363V69.8398H47.4363ZM43.0346 69.8398H40.0346V72.8398H43.0346V69.8398ZM22 36.1551H26.4917V30.1551H22V36.1551ZM23.4917 33.1551V48.4856H29.4917V33.1551H23.4917ZM28.4844 46.2431L23.9927 42.2517L20.0073 46.7368L24.499 50.7282L28.4844 46.2431ZM25 44.4942V33.1551H19V44.4942H25ZM27.3686 31.1055H31.6802V25.1055H27.3686V31.1055ZM28.6802 28.1055V53.4509H34.6802V28.1055H28.6802ZM33.7665 51.2951L29.455 47.1223L25.2823 51.4338L29.5938 55.6066L33.7665 51.2951ZM30.3686 49.278V28.1055H24.3686V49.278H30.3686ZM32.5631 26.0495H36.9648V20.0495H32.5631V26.0495ZM33.9648 23.0495V47.0644H39.9648V23.0495H33.9648ZM36.9648 44.0644H32.5631V50.0644H36.9648V44.0644ZM35.5631 47.0644V23.0495H29.5631V47.0644H35.5631ZM37.8412 21H42.417V15H37.8412V21ZM39.417 18V42.1056H45.417V18H39.417ZM42.417 39.1056H37.8412V45.1056H42.417V39.1056ZM40.8412 42.1056V18H34.8412V42.1056H40.8412ZM43.0346 25.7838H47.4363V19.7838H43.0346V25.7838ZM44.4363 22.7838V47.0647H50.4363V22.7838H44.4363ZM47.4363 44.0647H43.0346V50.0647H47.4363V44.0647ZM46.0346 47.0647V22.7838H40.0346V47.0647H46.0346ZM48.4938 31.0085H52.8054V25.0085H48.4938V31.0085ZM49.8054 28.0085V49.1931H55.8054V28.0085H49.8054ZM50.6975 47.0584L46.3859 51.3159L50.6017 55.5853L54.9132 51.3278L50.6975 47.0584ZM51.4938 53.4506V28.0085H45.4938V53.4506H51.4938ZM53.5924 36.0642H58V30.0642H53.5924V36.0642ZM55 33.0642V44.1434H61V33.0642H55ZM55.8946 42.0062L51.487 46.3484L55.6978 50.6227L60.1054 46.2805L55.8946 42.0062ZM56.5924 48.4855V33.0642H50.5924V48.4855H56.5924ZM32.5631 50.6027H36.9648V44.6027H32.5631V50.6027ZM33.9648 47.6027V69.8395H39.9648V47.6027H33.9648ZM36.9648 66.8395H32.5631V72.8395H36.9648V66.8395ZM35.5631 69.8395V47.6027H29.5631V69.8395H35.5631ZM37.8412 45.8189H42.1527V39.8189H37.8412V45.8189ZM39.1527 42.8189V69.8394H45.1527V42.8189H39.1527ZM42.1527 66.8394H37.8412V72.8394H42.1527V66.8394ZM40.8412 69.8394V42.8189H34.8412V69.8394H40.8412ZM43.0346 50.6876H47.4363V44.6876H43.0346V50.6876ZM44.4363 47.6876V69.8398H50.4363V47.6876H44.4363ZM47.4363 66.8398H43.0346V72.8398H47.4363V66.8398ZM46.0346 69.8398V47.6876H40.0346V69.8398H46.0346Z" fill="white" mask="url(#path-2-outside-1_1238_32)"/>
</svg>
