<svg width="80" height="116" viewBox="0 0 80 116" fill="none" xmlns="http://www.w3.org/2000/svg">
<path d="M37.5437 0.101189C35.3901 0.301376 34.329 0.427818 33.184 0.628006C19.8315 2.94601 8.54865 11.923 3.19086 24.4929C0.701069 30.309 -0.423016 37.3578 0.144279 43.5111C0.806123 50.6863 2.98075 56.8291 6.9203 62.7294C7.42456 63.4775 9.06342 66.0695 10.5447 68.4718C13.9905 74.035 14.5052 74.8673 16.6379 78.3233C17.6149 79.8827 19.0751 82.2533 19.8945 83.5915C20.714 84.919 22.4894 87.7955 23.8341 89.966C27.8157 96.4037 31.4295 102.251 35.7473 109.248C37.985 112.872 39.8759 115.896 39.9495 115.97C40.065 116.086 40.2226 115.896 40.8214 114.916C41.2311 114.263 42.849 111.639 44.4248 109.089C48.5219 102.473 49.0997 101.524 49.8351 100.344C50.1923 99.7648 51.9677 96.8989 53.7747 93.9698C55.5816 91.0407 57.4726 87.9851 57.9768 87.1738C58.4811 86.3625 59.9414 83.9918 61.2335 81.9056C62.5257 79.8194 63.8704 77.6384 64.2276 77.0589C64.5848 76.4794 66.5808 73.2553 68.6609 69.8942C70.741 66.5331 72.7895 63.2562 73.2308 62.6241C76.7081 57.5034 78.9457 51.5082 79.7967 45.0283C80.0908 42.7524 80.0593 37.1998 79.7442 35.0187C79.0298 30.1299 77.8952 26.3789 75.9097 22.3646C71.0877 12.6395 62.7253 5.40099 52.3879 1.99773C47.713 0.469955 41.7774 -0.288658 37.5437 0.101189Z" fill="#FF752F"/>
<path fill-rule="evenodd" clip-rule="evenodd" d="M27.1637 21.4837C27.5295 21.2942 28.0335 21.1052 28.2775 21.0621C28.5295 21.019 32.6916 20.9934 37.8703 21.0015L47.0156 21.01L47.5765 21.2421C48.9744 21.8186 49.9825 22.9882 50.3482 24.468C50.4539 24.8896 50.47 26.2747 50.47 33.9993V43.0317L51.0063 43.1866C52.6156 43.6342 54.0382 45.1482 54.5023 46.9297C54.5999 47.3082 54.6406 47.9619 54.6648 49.7425C54.7118 52.9886 54.7144 53.4662 54.8695 53.8877C54.9022 53.9766 54.9417 54.0631 54.9898 54.1725C56.1684 56.8219 59.8104 56.839 60.981 54.1896C61.314 53.4326 61.3548 52.8992 61.3628 49.2347V46.0605L59.1842 43.7294C56.8023 41.1828 56.5745 40.8645 56.4039 39.7636C56.3632 39.4799 56.3224 37.6045 56.3224 35.5918V31.9358C56.3224 31.9358 54.9243 30.3504 53.9486 29.4238C53.5847 29.0781 53 28.5587 53 28.5587C53 28.5587 53.3633 28.1828 53.5936 27.9391C53.8238 27.6955 54.1791 27.311 54.1791 27.311L57.5011 30.6881C62.5572 36.0389 62.5894 36.082 62.866 37.1829C63.0447 37.9228 63.0447 52.8647 62.866 53.7851C62.4838 55.7291 61.0531 57.2861 59.1999 57.785C56.6636 58.4732 54.0539 56.9247 53.2168 54.2583C53.0543 53.742 53.0381 53.4667 52.9974 50.5592L52.9486 47.4195L52.6885 46.843C52.2821 45.9231 51.445 45.123 50.6889 44.925L50.4696 44.8649L50.4857 52.2886L50.5099 59.7209L51.0954 59.764C51.5994 59.7986 51.7212 59.8413 51.9083 60.0478L52.1357 60.2799V62.3874V64.4949L51.9083 64.727L51.6889 64.9681L37.8046 64.9937C28.2775 65.0112 23.8391 64.9937 23.6359 64.925C23.0831 64.7611 23.0343 64.5806 23.0101 62.6882C22.9774 60.6579 23.0101 60.3311 23.319 60.0042C23.5303 59.7892 23.6037 59.7636 24.1238 59.7636H24.7008V42.4902C24.7008 27.5655 24.717 25.1482 24.8226 24.6234C25.0988 23.2558 25.969 22.0858 27.1637 21.4837ZM48.5671 24.4254C48.2748 23.7627 47.722 23.2037 47.0716 22.9285L46.6083 22.7305L37.9102 22.722C33.1303 22.7134 29.0089 22.739 28.7569 22.7736C27.5053 22.946 26.5867 23.9265 26.3996 25.2856C26.3593 25.5954 26.3267 33.0533 26.3267 42.7479V59.6769H37.5852H48.8438L48.8276 42.3178L48.803 24.9673L48.5671 24.4254ZM61.3463 40.5116C61.3221 37.7159 61.3136 37.5955 61.1431 37.2256C61.0294 36.9759 60.4277 36.2791 59.493 35.2905L58.0297 33.742V36.6666C58.0297 39.4282 58.0458 39.6173 58.2003 39.9787C58.314 40.2449 58.818 40.8474 59.8015 41.8882C60.5902 42.7309 61.2648 43.4192 61.3056 43.4192C61.3463 43.4192 61.3624 42.1203 61.3463 40.5116ZM50.4696 63.2903V62.3869V61.4836H37.5852H24.7008V62.3869V63.2903H37.5852H50.4696ZM30.1294 27.5434C30.3018 26.962 30.7619 26.3728 31.2216 26.15C31.5537 25.9909 31.656 25.9909 37.5965 26.0067L43.6331 26.0224L43.9588 26.2373C44.1378 26.357 44.4059 26.6196 44.5466 26.8186C44.6254 26.9315 44.6909 27.0218 44.7452 27.1184C45.0168 27.6009 45.0095 28.2404 44.9937 32.6388C44.9747 36.9858 44.9683 37.3524 44.8596 37.615C44.6616 38.1087 44.3169 38.5383 43.9334 38.7773L43.5694 39H37.5009H31.4323L31.1003 38.7852C30.6915 38.5146 30.3658 38.1008 30.1741 37.615L30.027 37.2489L30.008 32.623C29.9887 28.0769 29.9954 27.9813 30.1294 27.5434ZM43.4988 27.7915C43.4486 27.7517 43.3876 27.7255 43.3137 27.6867C43.1286 27.5911 42.1894 27.5749 37.5199 27.5832C33.374 27.5832 31.8857 27.6073 31.7197 27.6788C31.5667 27.7424 31.458 27.8617 31.3876 28.0528C31.2853 28.3075 31.2726 28.6898 31.2726 32.3999C31.2726 34.6372 31.2916 36.5799 31.311 36.7232C31.3366 36.8587 31.426 37.0577 31.5153 37.1691L31.675 37.3681H37.5072H43.339L43.518 37.177L43.6971 36.9858L43.7161 32.5831C43.7319 28.521 43.7479 27.9889 43.4988 27.7915Z" fill="white"/>
<path d="M28.2775 21.0621L28.234 20.8159L28.2353 20.8157L28.2775 21.0621ZM27.1637 21.4837L27.2788 21.7057L27.2763 21.7069L27.1637 21.4837ZM37.8703 21.0015L37.8701 21.2515H37.8699L37.8703 21.0015ZM47.0156 21.01L47.0158 20.76L47.0654 20.7601L47.1112 20.779L47.0156 21.01ZM47.5765 21.2421L47.4811 21.4733L47.4809 21.4731L47.5765 21.2421ZM50.3482 24.468L50.1057 24.5288L50.1055 24.528L50.3482 24.468ZM50.47 43.0317L50.4006 43.2719L50.22 43.2197V43.0317H50.47ZM51.0063 43.1866L50.9393 43.4275L50.9369 43.4268L51.0063 43.1866ZM54.5023 46.9297L54.7442 46.8666L54.7444 46.8673L54.5023 46.9297ZM54.6648 49.7425L54.4148 49.7461L54.4148 49.7459L54.6648 49.7425ZM54.8695 53.8877L55.1041 53.8014V53.8014L54.8695 53.8877ZM54.9898 54.1725L54.7614 54.2741L54.761 54.2731L54.9898 54.1725ZM60.981 54.1896L61.2098 54.2903L61.2097 54.2906L60.981 54.1896ZM61.3628 49.2347H61.6128V49.2353L61.3628 49.2347ZM61.3628 46.0605L61.5455 45.8898L61.6128 45.9618V46.0605H61.3628ZM59.1842 43.7294L59.3668 43.5586L59.3668 43.5587L59.1842 43.7294ZM56.4039 39.7636L56.1568 39.8019L56.1564 39.7991L56.4039 39.7636ZM56.3224 31.9358L56.51 31.7704L56.5724 31.8413V31.9358H56.3224ZM53.9486 29.4238L53.7765 29.605H53.7765L53.9486 29.4238ZM53 28.5587L52.834 28.7456L52.639 28.5725L52.8202 28.385L53 28.5587ZM53.5936 27.9391L53.4119 27.7674L53.5936 27.9391ZM54.1791 27.311L53.9954 27.1413L54.1734 26.9488L54.3573 27.1357L54.1791 27.311ZM57.5011 30.6881L57.6793 30.5127L57.6828 30.5164L57.5011 30.6881ZM62.866 37.1829L63.1085 37.122L63.1091 37.1243L62.866 37.1829ZM62.866 53.7851L63.1115 53.8327L63.1113 53.8333L62.866 53.7851ZM59.1999 57.785L59.1344 57.5437L59.1349 57.5435L59.1999 57.785ZM53.2168 54.2583L53.4552 54.1832L53.4553 54.1834L53.2168 54.2583ZM52.9974 50.5592L53.2474 50.5553L53.2474 50.5557L52.9974 50.5592ZM52.9486 47.4195L53.1765 47.3167L53.1978 47.3639L53.1986 47.4156L52.9486 47.4195ZM52.6885 46.843L52.4606 46.9458L52.4599 46.9441L52.6885 46.843ZM50.6889 44.925L50.6256 45.1669L50.6228 45.1661L50.6889 44.925ZM50.4696 44.8649L50.2196 44.8654L50.2189 44.5368L50.5357 44.6238L50.4696 44.8649ZM50.4857 52.2886L50.2357 52.2894L50.2357 52.2892L50.4857 52.2886ZM50.5099 59.7209L50.4915 59.9703L50.2606 59.9533L50.2599 59.7217L50.5099 59.7209ZM51.0954 59.764L51.0783 60.0134L51.077 60.0134L51.0954 59.764ZM51.9083 60.0478L51.7296 60.2229L51.723 60.2156L51.9083 60.0478ZM52.1357 60.2799L52.3143 60.1049L52.3857 60.1778V60.2799H52.1357ZM52.1357 64.4949H52.3857V64.5969L52.3143 64.6698L52.1357 64.4949ZM51.9083 64.727L51.7232 64.5586L51.7297 64.552L51.9083 64.727ZM51.6889 64.9681L51.8739 65.1363L51.7997 65.2179L51.6894 65.2181L51.6889 64.9681ZM37.8046 64.9937L37.805 65.2437H37.805L37.8046 64.9937ZM23.6359 64.925L23.707 64.6851L23.716 64.6881L23.6359 64.925ZM23.0101 62.6882L23.2601 62.6842L23.2601 62.685L23.0101 62.6882ZM23.319 60.0042L23.1372 59.8325L23.1406 59.829L23.319 60.0042ZM24.7008 59.7636H24.9508V60.0136H24.7008V59.7636ZM24.8226 24.6234L24.5775 24.574L24.5775 24.5739L24.8226 24.6234ZM47.0716 22.9285L46.9741 23.1587L46.9733 23.1584L47.0716 22.9285ZM48.5671 24.4254L48.7959 24.3245L48.7964 24.3256L48.5671 24.4254ZM46.6083 22.7305L46.6085 22.4805L46.6596 22.4805L46.7065 22.5006L46.6083 22.7305ZM37.9102 22.722L37.91 22.972H37.9098L37.9102 22.722ZM28.7569 22.7736L28.7228 22.5259L28.7229 22.5259L28.7569 22.7736ZM26.3996 25.2856L26.1517 25.2533L26.152 25.2515L26.3996 25.2856ZM26.3267 59.6769V59.9269H26.0767V59.6769H26.3267ZM48.8438 59.6769L49.0938 59.6767L49.094 59.9269H48.8438V59.6769ZM48.8276 42.3178L49.0776 42.3175V42.3176L48.8276 42.3178ZM48.803 24.9673L49.0323 24.8675L49.053 24.915L49.053 24.9669L48.803 24.9673ZM61.1431 37.2256L60.916 37.3302L60.9155 37.3292L61.1431 37.2256ZM61.3463 40.5116L61.0963 40.5141L61.0963 40.5138L61.3463 40.5116ZM59.493 35.2905L59.3114 35.4622L59.3113 35.4622L59.493 35.2905ZM58.0297 33.742H57.7797V33.1135L58.2114 33.5703L58.0297 33.742ZM58.2003 39.9787L58.4302 39.8804L58.4302 39.8805L58.2003 39.9787ZM59.8015 41.8882L59.9832 41.7165L59.984 41.7173L59.8015 41.8882ZM50.4696 63.2903H50.7196V63.5403H50.4696V63.2903ZM50.4696 61.4836V61.2336H50.7196V61.4836H50.4696ZM24.7008 61.4836H24.4508V61.2336H24.7008V61.4836ZM24.7008 63.2903V63.5403H24.4508V63.2903H24.7008ZM31.2216 26.15L31.1126 25.925L31.1136 25.9246L31.2216 26.15ZM30.1294 27.5434L30.3691 27.6144L30.3685 27.6165L30.1294 27.5434ZM37.5965 26.0067L37.5959 26.2567H37.5959L37.5965 26.0067ZM43.6331 26.0224L43.6337 25.7724L43.7084 25.7726L43.7707 25.8138L43.6331 26.0224ZM43.9588 26.2373L44.0964 26.0286L44.0977 26.0294L43.9588 26.2373ZM44.5466 26.8186L44.7507 26.6743L44.7515 26.6755L44.5466 26.8186ZM44.7452 27.1184L44.9631 26.9958L44.9631 26.9958L44.7452 27.1184ZM44.9937 32.6388L45.2437 32.6397V32.6399L44.9937 32.6388ZM44.8596 37.615L44.6276 37.5219L44.6286 37.5194L44.8596 37.615ZM43.9334 38.7773L44.0657 38.9894L44.0639 38.9905L43.9334 38.7773ZM43.5694 39L43.6998 39.2133L43.6398 39.25H43.5694V39ZM31.4323 39V39.25H31.3585L31.2965 39.2099L31.4323 39ZM31.1003 38.7852L30.9645 38.9951L30.9623 38.9936L31.1003 38.7852ZM30.1741 37.615L30.4061 37.5218L30.4066 37.5232L30.1741 37.615ZM30.027 37.2489L29.7951 37.3421L29.7772 37.2977L29.777 37.2499L30.027 37.2489ZM30.008 32.623L30.258 32.6219L30.258 32.622L30.008 32.623ZM43.3137 27.6867L43.4284 27.4646L43.4297 27.4653L43.3137 27.6867ZM43.4988 27.7915L43.3435 27.9874L43.3435 27.9874L43.4988 27.7915ZM37.5199 27.5832L37.5203 27.8332H37.5199V27.5832ZM31.7197 27.6788L31.8186 27.9085L31.8156 27.9097L31.7197 27.6788ZM31.3876 28.0528L31.6224 28.1392L31.6196 28.146L31.3876 28.0528ZM31.311 36.7232L31.065 36.7698L31.0632 36.7566L31.311 36.7232ZM31.5153 37.1691L31.3203 37.3255L31.3203 37.3255L31.5153 37.1691ZM31.675 37.3681V37.6181H31.5551L31.48 37.5246L31.675 37.3681ZM43.339 37.3681L43.5215 37.539L43.4474 37.6181H43.339V37.3681ZM43.6971 36.9858L43.9471 36.9869L43.9466 37.0851L43.8795 37.1567L43.6971 36.9858ZM43.7161 32.5831L43.9661 32.5841V32.5842L43.7161 32.5831ZM28.321 21.3083C28.1121 21.3452 27.6335 21.5219 27.2787 21.7057L27.0488 21.2617C27.4255 21.0665 27.9549 20.8652 28.234 20.8159L28.321 21.3083ZM37.8699 21.2515C35.281 21.2474 32.9465 21.2518 31.228 21.2626C30.3686 21.268 29.6638 21.275 29.1585 21.2833C28.9057 21.2874 28.7038 21.2919 28.5577 21.2967C28.4846 21.299 28.4266 21.3014 28.3838 21.3038C28.3361 21.3065 28.3191 21.3086 28.3196 21.3085L28.2353 20.8157C28.288 20.8067 28.402 20.8015 28.5415 20.7969C28.6915 20.792 28.8965 20.7875 29.1503 20.7833C29.6581 20.775 30.3648 20.768 31.2248 20.7626C32.945 20.7518 35.2809 20.7474 37.8707 20.7515L37.8699 21.2515ZM47.0153 21.26L37.8701 21.2515L37.8706 20.7515L47.0158 20.76L47.0153 21.26ZM47.4809 21.4731L46.92 21.241L47.1112 20.779L47.672 21.0111L47.4809 21.4731ZM50.1055 24.528C49.7588 23.1252 48.8053 22.0193 47.4811 21.4733L47.6718 21.011C49.1436 21.6179 50.2062 22.8512 50.5909 24.408L50.1055 24.528ZM50.22 33.9993C50.22 30.1364 50.216 27.8608 50.1988 26.4982C50.1901 25.8165 50.1783 25.3666 50.1622 25.062C50.1459 24.7537 50.1258 24.6089 50.1057 24.5288L50.5907 24.4072C50.6235 24.5378 50.645 24.7243 50.6615 25.0357C50.6781 25.3508 50.6901 25.809 50.6987 26.4919C50.716 27.8583 50.72 30.1375 50.72 33.9993H50.22ZM50.22 43.0317V33.9993H50.72V43.0317H50.22ZM50.9369 43.4268L50.4006 43.2719L50.5394 42.7915L51.0757 42.9464L50.9369 43.4268ZM54.2604 46.9927C53.8162 45.2879 52.4537 43.8487 50.9393 43.4274L51.0733 42.9457C52.7775 43.4198 54.2601 45.0084 54.7442 46.8666L54.2604 46.9927ZM54.4148 49.7459C54.3905 47.9525 54.3485 47.3346 54.2602 46.9921L54.7444 46.8673C54.8512 47.2817 54.8908 47.9713 54.9148 49.7391L54.4148 49.7459ZM54.6348 53.9739C54.5434 53.7253 54.503 53.4684 54.4769 52.8855C54.4507 52.3028 54.4383 51.3665 54.4148 49.7461L54.9148 49.7389C54.9383 51.3646 54.9507 52.2902 54.9764 52.8631C55.002 53.4359 55.0405 53.6285 55.1041 53.8014L54.6348 53.9739ZM54.761 54.2731C54.715 54.1687 54.671 54.0723 54.6348 53.9739L55.1041 53.8014C55.1334 53.8809 55.1683 53.9574 55.2187 54.0719L54.761 54.2731ZM61.2097 54.2906C59.9499 57.142 56.0265 57.118 54.7614 54.2741L55.2182 54.0709C56.3103 56.5258 59.671 56.536 60.7523 54.0885L61.2097 54.2906ZM61.6128 49.2353C61.6048 52.8755 61.5691 53.4737 61.2098 54.2903L60.7522 54.0889C61.059 53.3915 61.1047 52.9229 61.1128 49.2342L61.6128 49.2353ZM61.6128 46.0605V49.2347H61.1128V46.0605H61.6128ZM59.3668 43.5587L61.5455 45.8898L61.1802 46.2312L59.0015 43.9001L59.3668 43.5587ZM56.651 39.7253C56.7321 40.2488 56.821 40.5646 57.1694 41.0607C57.533 41.5785 58.171 42.2802 59.3668 43.5586L59.0016 43.9002C57.8155 42.6321 57.1486 41.9012 56.7602 41.348C56.3565 40.7731 56.2463 40.3793 56.1569 39.8019L56.651 39.7253ZM56.5724 35.5918C56.5724 36.5966 56.5826 37.567 56.5979 38.321C56.6133 39.086 56.6338 39.6055 56.6514 39.7281L56.1564 39.7991C56.1333 39.638 56.113 39.0779 56.098 38.3311C56.0826 37.5734 56.0724 36.5997 56.0724 35.5918H56.5724ZM56.5724 31.9358V35.5918H56.0724V31.9358H56.5724ZM54.1208 29.2425C54.615 29.7119 55.2132 30.345 55.6854 30.8579C55.922 31.115 56.128 31.3429 56.2748 31.5066C56.3483 31.5885 56.407 31.6544 56.4473 31.6998C56.4675 31.7225 56.4831 31.7401 56.4937 31.752C56.499 31.758 56.503 31.7626 56.5058 31.7657C56.5071 31.7672 56.5082 31.7684 56.5089 31.7692C56.5092 31.7696 56.5095 31.7699 56.5097 31.7701C56.5098 31.7702 56.5098 31.7703 56.5099 31.7703C56.5099 31.7704 56.5099 31.7704 56.5099 31.7704C56.5099 31.7704 56.51 31.7704 56.3224 31.9358C56.1349 32.1011 56.1349 32.1011 56.1349 32.1011C56.1349 32.1011 56.1349 32.1011 56.1349 32.1011C56.1349 32.101 56.1348 32.101 56.1347 32.1009C56.1346 32.1007 56.1343 32.1004 56.134 32.1001C56.1334 32.0993 56.1324 32.0982 56.1311 32.0967C56.1284 32.0938 56.1245 32.0893 56.1193 32.0834C56.1089 32.0717 56.0936 32.0544 56.0736 32.0319C56.0337 31.987 55.9755 31.9218 55.9027 31.8405C55.7569 31.678 55.5524 31.4517 55.3175 31.1966C54.8467 30.6852 54.2579 30.0623 53.7765 29.605L54.1208 29.2425ZM53 28.5587C53.166 28.3718 53.166 28.3718 53.166 28.3718C53.1661 28.3718 53.1661 28.3718 53.1661 28.3718C53.1661 28.3719 53.1661 28.3719 53.1662 28.3719C53.1662 28.372 53.1663 28.3721 53.1665 28.3722C53.1668 28.3725 53.1672 28.3729 53.1678 28.3734C53.1689 28.3744 53.1706 28.3759 53.1728 28.3778C53.1772 28.3818 53.1837 28.3876 53.1921 28.395C53.2089 28.41 53.2333 28.4317 53.2637 28.4589C53.3244 28.5132 53.4092 28.5892 53.5054 28.6761C53.6973 28.8494 53.9364 29.0674 54.1208 29.2425L53.7765 29.605C53.5969 29.4345 53.3617 29.22 53.1703 29.0472C53.0748 28.961 52.9907 28.8855 52.9304 28.8316C52.9003 28.8047 52.8761 28.7831 52.8595 28.7684C52.8512 28.761 52.8448 28.7553 52.8405 28.7514C52.8383 28.7495 52.8367 28.748 52.8356 28.7471C52.835 28.7466 52.8346 28.7462 52.8344 28.746C52.8342 28.7458 52.8341 28.7457 52.8341 28.7457C52.834 28.7457 52.834 28.7456 52.834 28.7456C52.834 28.7456 52.834 28.7456 52.834 28.7456C52.834 28.7456 52.834 28.7456 53 28.5587ZM53.7753 28.1108C53.6594 28.2335 53.5104 28.389 53.3907 28.5135C53.3308 28.5759 53.2781 28.6306 53.2403 28.6697C53.2215 28.6893 53.2063 28.7049 53.1959 28.7157C53.1907 28.7211 53.1867 28.7253 53.1839 28.7281C53.1826 28.7295 53.1815 28.7306 53.1808 28.7313C53.1805 28.7317 53.1802 28.732 53.18 28.7322C53.18 28.7323 53.1799 28.7323 53.1798 28.7324C53.1798 28.7324 53.1798 28.7324 53.1798 28.7324C53.1798 28.7324 53.1798 28.7324 53.1798 28.7324C53.1798 28.7324 53.1798 28.7324 53 28.5587C52.8202 28.385 52.8202 28.385 52.8202 28.385C52.8202 28.385 52.8202 28.385 52.8202 28.385C52.8203 28.3849 52.8203 28.3849 52.8203 28.3849C52.8203 28.3849 52.8204 28.3848 52.8205 28.3847C52.8207 28.3845 52.8209 28.3843 52.8213 28.3839C52.8219 28.3832 52.823 28.3821 52.8243 28.3807C52.827 28.3779 52.831 28.3738 52.8362 28.3684C52.8466 28.3577 52.8616 28.3421 52.8804 28.3226C52.918 28.2836 52.9705 28.2291 53.0302 28.167C53.1497 28.0427 53.2975 27.8884 53.4119 27.7674L53.7753 28.1108ZM54.1791 27.311C54.3627 27.4807 54.3627 27.4807 54.3627 27.4807C54.3627 27.4807 54.3627 27.4807 54.3627 27.4807C54.3626 27.4807 54.3626 27.4807 54.3626 27.4807C54.3626 27.4808 54.3625 27.4809 54.3624 27.481C54.3622 27.4812 54.362 27.4814 54.3616 27.4818C54.3609 27.4825 54.3599 27.4836 54.3586 27.4851C54.3559 27.488 54.352 27.4922 54.3469 27.4978C54.3367 27.5088 54.3219 27.5248 54.3034 27.5448C54.2664 27.5847 54.2147 27.6405 54.1558 27.7039C54.0381 27.8305 53.8911 27.9882 53.7753 28.1108L53.4119 27.7674C53.5262 27.6464 53.672 27.49 53.7895 27.3635C53.8482 27.3004 53.8997 27.2448 53.9365 27.205C53.9549 27.1851 53.9697 27.1692 53.9798 27.1583C53.9849 27.1528 53.9888 27.1485 53.9914 27.1457C53.9928 27.1442 53.9938 27.1432 53.9944 27.1424C53.9948 27.1421 53.995 27.1418 53.9952 27.1416C53.9953 27.1415 53.9953 27.1415 53.9954 27.1414C53.9954 27.1414 53.9954 27.1414 53.9954 27.1414C53.9954 27.1414 53.9954 27.1413 53.9954 27.1413C53.9954 27.1413 53.9954 27.1413 54.1791 27.311ZM57.3229 30.8634L54.0008 27.4863L54.3573 27.1357L57.6793 30.5128L57.3229 30.8634ZM62.6236 37.2438C62.5542 36.9679 62.5058 36.7831 62.3984 36.5677C62.2898 36.3501 62.1156 36.0912 61.7831 35.6884C61.1153 34.8795 59.8513 33.5394 57.3194 30.8598L57.6828 30.5164C60.2069 33.1877 61.4871 34.5445 62.1686 35.3701C62.5108 35.7846 62.7125 36.0773 62.8458 36.3446C62.9802 36.6141 63.0395 36.8475 63.1085 37.122L62.6236 37.2438ZM62.6206 53.7374C62.6382 53.6467 62.6577 53.3372 62.6748 52.8294C62.6915 52.3336 62.7054 51.6734 62.7165 50.9031C62.7388 49.3629 62.75 47.3871 62.75 45.4163C62.75 43.4455 62.7388 41.481 62.7165 39.9634C62.7054 39.2044 62.6915 38.5584 62.6748 38.0797C62.6665 37.8401 62.6575 37.6441 62.648 37.4974C62.6432 37.424 62.6384 37.3645 62.6336 37.3191C62.6312 37.2963 62.629 37.2782 62.6269 37.2643C62.6259 37.2573 62.625 37.2519 62.6243 37.2479C62.6239 37.2459 62.6236 37.2444 62.6234 37.2432C62.6232 37.2424 62.6233 37.2426 62.6231 37.242C62.623 37.2414 62.6231 37.242 62.623 37.2416L63.1091 37.1243C63.1263 37.1955 63.1375 37.3201 63.1469 37.465C63.1569 37.6189 63.1661 37.8206 63.1745 38.0623C63.1913 38.5459 63.2053 39.1958 63.2165 39.956C63.2388 41.4769 63.25 43.4441 63.25 45.4163C63.25 47.3886 63.2388 49.367 63.2165 50.9103C63.2053 51.6819 63.1913 52.3458 63.1745 52.8462C63.1581 53.3345 63.1385 53.6933 63.1115 53.8327L62.6206 53.7374ZM59.1349 57.5435C60.8928 57.0704 62.2562 55.5908 62.6207 53.7368L63.1113 53.8333C62.7114 55.8674 61.2134 57.5019 59.2649 58.0264L59.1349 57.5435ZM53.4553 54.1834C54.2568 56.7364 56.742 58.1929 59.1344 57.5437L59.2654 58.0262C56.5851 58.7536 53.8509 57.113 52.9782 54.3332L53.4553 54.1834ZM53.2474 50.5557C53.2884 53.4842 53.3067 53.7112 53.4552 54.1832L52.9783 54.3333C52.8018 53.7727 52.7879 53.4492 52.7474 50.5627L53.2474 50.5557ZM53.1986 47.4156L53.2474 50.5553L52.7474 50.5631L52.6986 47.4234L53.1986 47.4156ZM52.9164 46.7402L53.1765 47.3167L52.7207 47.5223L52.4607 46.9458L52.9164 46.7402ZM50.7523 44.6832C51.1838 44.7962 51.6182 45.0738 51.9928 45.4328C52.3694 45.7936 52.6999 46.2502 52.9172 46.742L52.4599 46.9441C52.2707 46.5159 51.9795 46.1125 51.6469 45.7938C51.3123 45.4732 50.9502 45.2519 50.6256 45.1669L50.7523 44.6832ZM50.5357 44.6238L50.7551 44.6839L50.6228 45.1661L50.4035 45.1059L50.5357 44.6238ZM50.2357 52.2892L50.2196 44.8654L50.7196 44.8643L50.7357 52.2881L50.2357 52.2892ZM50.2599 59.7217L50.2357 52.2894L50.7357 52.2878L50.7599 59.7201L50.2599 59.7217ZM51.077 60.0134L50.4915 59.9703L50.5282 59.4716L51.1137 59.5147L51.077 60.0134ZM51.723 60.2156C51.645 60.1295 51.6012 60.0994 51.5383 60.0774C51.4575 60.0492 51.3333 60.0309 51.0783 60.0134L51.1125 59.5146C51.3615 59.5317 51.5502 59.552 51.7031 59.6054C51.8739 59.665 51.9845 59.7595 52.0936 59.8799L51.723 60.2156ZM51.9571 60.4549L51.7297 60.2227L52.0869 59.8728L52.3143 60.1049L51.9571 60.4549ZM51.8857 62.3874V60.2799H52.3857V62.3874H51.8857ZM51.8857 64.4949V62.3874H52.3857V64.4949H51.8857ZM51.7297 64.552L51.9571 64.3199L52.3143 64.6698L52.0869 64.9019L51.7297 64.552ZM51.504 64.7998L51.7234 64.5587L52.0932 64.8952L51.8739 65.1363L51.504 64.7998ZM37.8041 64.7437L51.6885 64.7181L51.6894 65.2181L37.805 65.2437L37.8041 64.7437ZM23.716 64.6881C23.6943 64.6808 23.6908 64.6836 23.745 64.6881C23.786 64.6916 23.8449 64.6952 23.9233 64.6986C24.0795 64.7055 24.3043 64.7117 24.6004 64.7172C25.1921 64.7282 26.0623 64.7363 27.2249 64.7416C29.5499 64.7524 33.0406 64.7524 37.8041 64.7437L37.805 65.2437C33.0414 65.2524 29.5494 65.2524 27.2226 65.2416C26.0594 65.2363 25.1864 65.2282 24.5911 65.2171C24.2937 65.2116 24.0639 65.2053 23.9013 65.1981C23.8203 65.1946 23.7537 65.1907 23.7027 65.1864C23.6649 65.1832 23.603 65.1777 23.5559 65.1618L23.716 64.6881ZM23.2601 62.685C23.2661 63.1584 23.2737 63.5193 23.2899 63.7985C23.3063 64.0803 23.3309 64.2634 23.3656 64.3876C23.3985 64.5057 23.4358 64.553 23.4692 64.5811C23.51 64.6154 23.5739 64.6458 23.707 64.6853L23.5649 65.1647C23.4215 65.1222 23.272 65.0686 23.1474 64.9638C23.0154 64.8528 22.9353 64.706 22.884 64.522C22.8343 64.3441 22.8076 64.1169 22.7908 63.8275C22.7738 63.5355 22.7662 63.1642 22.7601 62.6914L23.2601 62.685ZM23.5007 60.1759C23.4381 60.2421 23.3974 60.2995 23.3659 60.3737C23.3328 60.4517 23.3047 60.5606 23.2849 60.7356C23.2444 61.0923 23.2436 61.6633 23.2601 62.6842L22.7601 62.6922C22.7439 61.6828 22.7431 61.0752 22.7881 60.6793C22.8109 60.4779 22.8468 60.317 22.9057 60.1783C22.9662 60.0358 23.0454 59.9298 23.1373 59.8325L23.5007 60.1759ZM24.1238 60.0136C23.8551 60.0136 23.7458 60.022 23.6781 60.0425C23.632 60.0565 23.5979 60.0771 23.4973 60.1794L23.1406 59.829C23.2514 59.7163 23.3596 59.6166 23.533 59.564C23.6849 59.518 23.8724 59.5136 24.1238 59.5136V60.0136ZM24.7008 60.0136H24.1238V59.5136H24.7008V60.0136ZM24.9508 42.4902V59.7636H24.4508V42.4902H24.9508ZM25.0677 24.6727C25.0461 24.7798 25.0254 25.0081 25.0089 25.5453C24.9926 26.0758 24.9807 26.891 24.9721 28.1585C24.9549 30.693 24.9508 35.0275 24.9508 42.4902H24.4508C24.4508 35.0282 24.4549 30.6917 24.4721 28.1551C24.4807 26.8872 24.4927 26.0669 24.5091 25.53C24.5254 25.0001 24.5463 24.7293 24.5775 24.574L25.0677 24.6727ZM27.2763 21.7069C26.1537 22.2726 25.3295 23.3763 25.0677 24.6728L24.5775 24.5739C24.8681 23.1352 25.7843 21.8989 27.0512 21.2604L27.2763 21.7069ZM47.169 22.6982C47.8811 22.9996 48.4792 23.6066 48.7959 24.3245L48.3384 24.5263C48.0704 23.9187 47.5628 23.4078 46.9741 23.1587L47.169 22.6982ZM46.7065 22.5006L47.1698 22.6986L46.9733 23.1584L46.51 22.9604L46.7065 22.5006ZM37.9104 22.472L46.6085 22.4805L46.608 22.9805L37.91 22.972L37.9104 22.472ZM28.7229 22.5259C28.7714 22.5193 28.8803 22.515 29.0197 22.5112C29.1674 22.5071 29.369 22.5033 29.6177 22.4998C30.1152 22.4926 30.8042 22.4864 31.6341 22.4816C33.2942 22.472 35.5202 22.4677 37.9106 22.472L37.9098 22.972C35.5203 22.9677 33.2956 22.972 31.6371 22.9816C30.8077 22.9864 30.1203 22.9926 29.6248 22.9997C29.377 23.0033 29.1779 23.007 29.0333 23.011C28.961 23.013 28.9032 23.015 28.8602 23.0169C28.8387 23.0179 28.8218 23.0189 28.809 23.0198C28.7951 23.0207 28.7902 23.0214 28.7909 23.0213L28.7229 22.5259ZM26.152 25.2515C26.3525 23.795 27.3472 22.7154 28.7228 22.5259L28.791 23.0212C27.6634 23.1766 26.821 24.0581 26.6473 25.3197L26.152 25.2515ZM26.0767 42.7479C26.0767 37.9004 26.0848 33.6119 26.098 30.4964C26.1046 28.9387 26.1125 27.6739 26.1212 26.779C26.1256 26.3317 26.1302 25.9762 26.135 25.7225C26.1395 25.4795 26.1444 25.3097 26.1517 25.2533L26.6475 25.3178C26.6476 25.317 26.6468 25.3251 26.6455 25.3486C26.6444 25.3698 26.6432 25.3983 26.642 25.4345C26.6396 25.5068 26.6372 25.6061 26.6349 25.7319C26.6301 25.9833 26.6256 26.337 26.6212 26.7839C26.6125 27.6774 26.6046 28.9411 26.598 30.4985C26.5848 33.6131 26.5767 37.9008 26.5767 42.7479H26.0767ZM26.0767 59.6769V42.7479H26.5767V59.6769H26.0767ZM37.5852 59.9269H26.3267V59.4269H37.5852V59.9269ZM48.8438 59.9269H37.5852V59.4269H48.8438V59.9269ZM49.0776 42.3176L49.0938 59.6767L48.5938 59.6772L48.5776 42.3181L49.0776 42.3176ZM49.053 24.9669L49.0776 42.3175L48.5776 42.3182L48.553 24.9676L49.053 24.9669ZM48.7964 24.3256L49.0323 24.8675L48.5738 25.067L48.3379 24.5251L48.7964 24.3256ZM61.3701 37.1209C61.4152 37.2189 61.4559 37.3135 61.4867 37.4447C61.5166 37.5718 61.5355 37.725 61.5491 37.9434C61.5761 38.3777 61.5842 39.1155 61.5963 40.5094L61.0963 40.5138C61.0842 39.112 61.076 38.3917 61.05 37.9744C61.0372 37.767 61.0204 37.6461 61 37.5592C60.9805 37.4764 60.9561 37.4173 60.916 37.3302L61.3701 37.1209ZM59.6747 35.1188C60.1433 35.6144 60.5306 36.0392 60.8159 36.3726C60.9584 36.5393 61.0772 36.6851 61.1686 36.8068C61.2568 36.9243 61.3301 37.033 61.3706 37.1219L60.9155 37.3292C60.8992 37.2933 60.8546 37.2213 60.7688 37.107C60.6862 36.997 60.5749 36.8601 60.436 36.6977C60.1583 36.3732 59.7774 35.9552 59.3114 35.4622L59.6747 35.1188ZM58.2114 33.5703L59.6748 35.1188L59.3113 35.4622L57.848 33.9137L58.2114 33.5703ZM57.7797 36.6666V33.742H58.2797V36.6666H57.7797ZM57.9704 40.0769C57.8787 39.8624 57.8319 39.6944 57.8074 39.236C57.7837 38.7901 57.7797 38.0443 57.7797 36.6666H58.2797C58.2797 38.0505 58.2838 38.7801 58.3067 39.2094C58.329 39.6263 58.3674 39.7335 58.4302 39.8804L57.9704 40.0769ZM59.6198 42.0599C59.1268 41.5382 58.751 41.1232 58.4831 40.8036C58.2226 40.4928 58.0439 40.249 57.9704 40.0769L58.4302 39.8805C58.4704 39.9746 58.6005 40.1652 58.8663 40.4824C59.1248 40.7908 59.4927 41.1974 59.9832 41.7165L59.6198 42.0599ZM61.3056 43.6692C61.2368 43.6692 61.1866 43.6401 61.1824 43.6378C61.1664 43.6293 61.1535 43.6205 61.1456 43.6149C61.1292 43.6032 61.1129 43.5898 61.0989 43.5778C61.0698 43.5529 61.0332 43.519 60.9915 43.4792C60.9074 43.3988 60.7924 43.2842 60.6556 43.1448C60.3815 42.8656 60.0142 42.4813 59.619 42.059L59.984 41.7173C60.3775 42.1377 60.7419 42.519 61.0124 42.7945C61.1479 42.9326 61.2586 43.0428 61.337 43.1177C61.3766 43.1556 61.4055 43.1821 61.4242 43.1981C61.4341 43.2066 61.4373 43.2087 61.4356 43.2076C61.4351 43.2072 61.4284 43.2023 61.4174 43.1965C61.4118 43.1935 61.4011 43.1881 61.3866 43.183C61.3745 43.1787 61.3449 43.1692 61.3056 43.1692V43.6692ZM61.5963 40.5091C61.6043 41.3146 61.6044 42.0436 61.5972 42.572C61.5937 42.8358 61.5883 43.0518 61.5811 43.203C61.5775 43.2777 61.5733 43.3411 61.5681 43.3879C61.5657 43.4097 61.5621 43.4367 61.5561 43.4619C61.5536 43.4725 61.5474 43.4976 61.5339 43.5251C61.5275 43.5383 61.5127 43.5663 61.4851 43.5941C61.4567 43.6228 61.396 43.6692 61.3056 43.6692V43.1692C61.2164 43.1692 61.1569 43.2149 61.1298 43.2423C61.1035 43.2689 61.0899 43.2949 61.0847 43.3057C61.0737 43.3282 61.0698 43.3458 61.0697 43.3464C61.0684 43.3518 61.0693 43.3493 61.0712 43.3325C61.0746 43.302 61.0782 43.2514 61.0816 43.1792C61.0884 43.0366 61.0937 42.8273 61.0973 42.5653C61.1043 42.0421 61.1043 41.3172 61.0963 40.5141L61.5963 40.5091ZM50.7196 62.3869V63.2903H50.2196V62.3869H50.7196ZM50.7196 61.4836V62.3869H50.2196V61.4836H50.7196ZM37.5852 61.2336H50.4696V61.7336H37.5852V61.2336ZM24.7008 61.2336H37.5852V61.7336H24.7008V61.2336ZM24.4508 62.3869V61.4836H24.9508V62.3869H24.4508ZM24.4508 63.2903V62.3869H24.9508V63.2903H24.4508ZM37.5852 63.5403H24.7008V63.0403H37.5852V63.5403ZM50.4696 63.5403H37.5852V63.0403H50.4696V63.5403ZM31.3306 26.375C31.1449 26.465 30.943 26.6385 30.7646 26.8663C30.5874 27.0926 30.4452 27.3576 30.3691 27.6144L29.8897 27.4723C29.9859 27.1478 30.16 26.8274 30.3709 26.5581C30.5806 26.2903 30.8385 26.0578 31.1126 25.925L31.3306 26.375ZM37.5959 26.2567C34.6234 26.2488 33.1171 26.2448 32.3114 26.2627C31.9067 26.2716 31.6912 26.2859 31.5591 26.3055C31.4412 26.323 31.3969 26.3432 31.3297 26.3755L31.1136 25.9246C31.2124 25.8772 31.3054 25.8377 31.4857 25.811C31.6519 25.7863 31.8954 25.7718 32.3004 25.7628C33.1141 25.7448 34.6292 25.7488 37.5972 25.7567L37.5959 26.2567ZM43.6324 26.2724L37.5959 26.2567L37.5972 25.7567L43.6337 25.7724L43.6324 26.2724ZM43.8211 26.446L43.4954 26.2311L43.7707 25.8138L44.0964 26.0286L43.8211 26.446ZM44.3424 26.9629C44.2182 26.7872 43.9718 26.5467 43.8199 26.4451L44.0977 26.0294C44.3039 26.1673 44.5936 26.452 44.7507 26.6743L44.3424 26.9629ZM44.5274 27.241C44.4806 27.1579 44.4247 27.0807 44.3416 26.9618L44.7515 26.6755C44.8261 26.7823 44.9012 26.8857 44.9631 26.9958L44.5274 27.241ZM44.7437 32.6379C44.7516 30.435 44.7573 29.183 44.7274 28.4199C44.6974 27.6537 44.6316 27.4261 44.5274 27.241L44.9631 26.9958C45.1305 27.2932 45.1967 27.6266 45.227 28.4004C45.2574 29.1772 45.2516 30.4441 45.2437 32.6397L44.7437 32.6379ZM44.6286 37.5194C44.6622 37.4382 44.6926 37.3289 44.7104 36.652C44.7278 35.9876 44.7342 34.8129 44.7437 32.6377L45.2437 32.6399C45.2342 34.8118 45.2278 35.9938 45.2102 36.6651C45.1929 37.3238 45.1657 37.5291 45.0906 37.7106L44.6286 37.5194ZM43.8012 38.5651C44.1327 38.3585 44.4461 37.9743 44.6276 37.5219L45.0917 37.7081C44.8771 38.243 44.501 38.7182 44.0657 38.9894L43.8012 38.5651ZM43.4389 38.7867L43.803 38.564L44.0639 38.9905L43.6998 39.2133L43.4389 38.7867ZM37.5009 38.75H43.5694V39.25H37.5009V38.75ZM31.4323 38.75H37.5009V39.25H31.4323V38.75ZM31.2361 38.5753L31.5681 38.7901L31.2965 39.2099L30.9645 38.9951L31.2361 38.5753ZM30.4066 37.5232C30.5811 37.9654 30.8757 38.3368 31.2382 38.5767L30.9623 38.9936C30.5073 38.6925 30.1505 38.2362 29.9415 37.7067L30.4066 37.5232ZM30.259 37.1557L30.4061 37.5218L29.9421 37.7081L29.7951 37.3421L30.259 37.1557ZM30.258 32.622L30.277 37.2479L29.777 37.2499L29.758 32.624L30.258 32.622ZM30.3685 27.6165C30.3104 27.8061 30.2768 27.915 30.2611 28.5488C30.2452 29.1911 30.2484 30.3467 30.258 32.6219L29.758 32.6241C29.7484 30.3532 29.7452 29.188 29.7613 28.5365C29.7776 27.8765 29.8143 27.7186 29.8903 27.4702L30.3685 27.6165ZM43.4297 27.4653C43.4795 27.4914 43.5793 27.5363 43.654 27.5955L43.3435 27.9874C43.3178 27.967 43.2957 27.9596 43.1976 27.9081L43.4297 27.4653ZM37.5194 27.3332C39.8535 27.3291 41.2583 27.3311 42.1029 27.3461C42.5245 27.3536 42.8116 27.3644 43.0067 27.3798C43.1042 27.3876 43.1837 27.3968 43.248 27.4085C43.3091 27.4197 43.3726 27.4358 43.4284 27.4646L43.1989 27.9088C43.2085 27.9138 43.2021 27.9084 43.1583 27.9004C43.1175 27.893 43.0568 27.8854 42.9672 27.8783C42.7883 27.8641 42.5141 27.8535 42.094 27.846C41.2553 27.8311 39.8558 27.8291 37.5203 27.8332L37.5194 27.3332ZM31.6209 27.4492C31.6801 27.4237 31.7571 27.4129 31.8178 27.4059C31.8898 27.3975 31.9836 27.3904 32.0995 27.3841C32.332 27.3715 32.667 27.3618 33.1233 27.3543C34.0366 27.3393 35.447 27.3332 37.5199 27.3332V27.8332C35.4469 27.8332 34.0402 27.8393 33.1315 27.8542C32.6767 27.8617 32.3494 27.8713 32.1265 27.8834C32.0148 27.8894 31.9327 27.8959 31.8754 27.9025C31.8066 27.9105 31.8008 27.9161 31.8186 27.9084L31.6209 27.4492ZM31.153 27.9665C31.2428 27.7226 31.3949 27.543 31.6238 27.448L31.8156 27.9097C31.7384 27.9418 31.6732 28.0008 31.6223 28.1392L31.153 27.9665ZM31.0226 32.3999C31.0226 30.5463 31.0258 29.5192 31.0418 28.9239C31.0576 28.3385 31.0853 28.1348 31.1557 27.9596L31.6196 28.146C31.5877 28.2255 31.5578 28.3403 31.5417 28.9374C31.5258 29.5243 31.5226 30.5434 31.5226 32.3999H31.0226ZM31.0632 36.7566C31.0559 36.7023 31.0512 36.5336 31.0469 36.3066C31.0423 36.0682 31.0381 35.741 31.0346 35.3491C31.0274 34.5649 31.0226 33.5191 31.0226 32.3999H31.5226C31.5226 33.5179 31.5274 34.5621 31.5345 35.3445C31.5381 35.7357 31.5423 36.061 31.5468 36.2971C31.549 36.4152 31.5513 36.5103 31.5536 36.5797C31.5548 36.6145 31.5559 36.642 31.557 36.6624C31.5582 36.6855 31.559 36.6921 31.5587 36.6898L31.0632 36.7566ZM31.3203 37.3255C31.2044 37.1811 31.0984 36.944 31.0653 36.7698L31.5566 36.6767C31.5749 36.7734 31.6475 36.9344 31.7103 37.0127L31.3203 37.3255ZM31.48 37.5246L31.3203 37.3255L31.7103 37.0126L31.87 37.2117L31.48 37.5246ZM37.5072 37.6181H31.675V37.1181H37.5072V37.6181ZM43.339 37.6181H37.5072V37.1181H43.339V37.6181ZM43.7005 37.3479L43.5215 37.539L43.1565 37.1972L43.3356 37.0061L43.7005 37.3479ZM43.8795 37.1567L43.7005 37.3479L43.3356 37.0061L43.5146 36.8149L43.8795 37.1567ZM43.9661 32.5842L43.9471 36.9869L43.4471 36.9848L43.4661 32.582L43.9661 32.5842ZM43.654 27.5955C43.7737 27.6904 43.8417 27.8181 43.8834 27.9948C43.9227 28.1615 43.944 28.3947 43.9566 28.7286C43.982 29.4009 43.974 30.5574 43.9661 32.5841L43.4661 32.5821C43.474 30.5468 43.4819 29.4062 43.457 28.7475C43.4444 28.416 43.424 28.2251 43.3967 28.1096C43.3719 28.0041 43.3484 27.9913 43.3435 27.9874L43.654 27.5955Z" fill="white"/>
</svg>
