<svg width="80" height="116" viewBox="0 0 80 116" fill="none" xmlns="http://www.w3.org/2000/svg">
<path d="M37.5437 0.101187C35.3901 0.301378 34.329 0.427815 33.184 0.628006C19.8315 2.94601 8.54865 11.923 3.19086 24.4929C0.701069 30.309 -0.423016 37.3578 0.144279 43.5111C0.806123 50.6863 2.98075 56.8291 6.9203 62.7294C7.42456 63.4775 9.06342 66.0695 10.5447 68.4718C13.9905 74.035 14.5052 74.8673 16.6379 78.3233C17.6149 79.8827 19.0751 82.2533 19.8945 83.5915C20.714 84.919 22.4894 87.7955 23.8341 89.966C27.8157 96.4037 31.4295 102.251 35.7473 109.248C37.9849 112.872 39.8759 115.896 39.9495 115.97C40.065 116.086 40.2226 115.896 40.8214 114.916C41.2311 114.263 42.849 111.639 44.4248 109.089C48.5219 102.473 49.0997 101.524 49.8351 100.344C50.1923 99.7648 51.9677 96.8989 53.7747 93.9698C55.5816 91.0407 57.4726 87.9851 57.9768 87.1738C58.4811 86.3625 59.9414 83.9918 61.2335 81.9056C62.5257 79.8194 63.8704 77.6384 64.2276 77.0589C64.5848 76.4794 66.5808 73.2553 68.6609 69.8942C70.741 66.5331 72.7895 63.2562 73.2308 62.6241C76.7081 57.5034 78.9457 51.5082 79.7967 45.0283C80.0908 42.7524 80.0593 37.1998 79.7442 35.0187C79.0298 30.1299 77.8952 26.3789 75.9097 22.3646C71.0877 12.6395 62.7253 5.40099 52.3879 1.99774C47.713 0.469961 41.7774 -0.288659 37.5437 0.101187Z" fill="#00A169"/>
<mask id="path-2-outside-1_1241_51" maskUnits="userSpaceOnUse" x="23" y="15" width="34" height="59" fill="black">
<rect fill="white" x="23" y="15" width="34" height="59"/>
<path d="M47.9468 29.6663C51.2313 37.9877 45.8762 43.3722 40.5358 48.7175C36.1885 53.515 32.2918 58.4777 37.3047 66.5229C38.0152 67.6632 38.9048 68.8655 39.9974 70.1379C36.7079 61.8165 42.0679 56.432 47.4034 51.0916C52.3767 45.5994 56.7529 39.9164 47.9517 29.6663"/>
<path d="M39.9971 19C43.2866 27.3215 37.9315 32.7059 32.591 38.0512C27.6226 43.5336 23.2465 49.2265 32.0526 59.4717C28.7632 51.1502 34.1232 45.7657 39.4587 40.4204C43.8107 35.6182 47.7045 30.6545 42.6886 22.6112C41.9782 21.472 41.089 20.271 39.9971 19Z"/>
<path d="M40.5358 48.7175C45.8762 43.3722 51.2313 37.9877 47.9468 29.6663L42.6886 22.6112C47.7045 30.6545 43.8107 35.6182 39.4587 40.4204C34.1232 45.7657 28.7632 51.1502 32.0526 59.4717L37.3047 66.5229C32.2918 58.4777 36.1885 53.515 40.5358 48.7175Z"/>
</mask>
<path d="M47.9468 29.6663C51.2313 37.9877 45.8762 43.3722 40.5358 48.7175C36.1885 53.515 32.2918 58.4777 37.3047 66.5229C38.0152 67.6632 38.9048 68.8655 39.9974 70.1379C36.7079 61.8165 42.0679 56.432 47.4034 51.0916C52.3767 45.5994 56.7529 39.9164 47.9517 29.6663" fill="#EF3D42"/>
<path d="M39.9971 19C43.2866 27.3215 37.9315 32.7059 32.591 38.0512C27.6226 43.5336 23.2465 49.2265 32.0526 59.4717C28.7632 51.1502 34.1232 45.7657 39.4587 40.4204C43.8107 35.6182 47.7045 30.6545 42.6886 22.6112C41.9782 21.472 41.089 20.271 39.9971 19Z" fill="#00A169"/>
<path d="M40.5358 48.7175C45.8762 43.3722 51.2313 37.9877 47.9468 29.6663L42.6886 22.6112C47.7045 30.6545 43.8107 35.6182 39.4587 40.4204C34.1232 45.7657 28.7632 51.1502 32.0526 59.4717L37.3047 66.5229C32.2918 58.4777 36.1885 53.515 40.5358 48.7175Z" fill="white"/>
<path d="M49.342 29.1156C49.0379 28.345 48.1667 27.9669 47.3961 28.271C46.6255 28.5752 46.2474 29.4464 46.5515 30.217L49.342 29.1156ZM40.5358 48.7175L39.4747 47.6574C39.4574 47.6746 39.4406 47.6922 39.4243 47.7103L40.5358 48.7175ZM38.7944 71.034C39.2892 71.6983 40.229 71.8358 40.8934 71.3409C41.5578 70.846 41.6952 69.9063 41.2003 69.2419L38.7944 71.034ZM41.1998 18.1036C40.7048 17.4394 39.765 17.3022 39.1007 17.7973C38.4365 18.2924 38.2994 19.2321 38.7944 19.8964L41.1998 18.1036ZM30.6576 60.0231C30.9622 60.7935 31.8336 61.1712 32.604 60.8666C33.3744 60.5621 33.7521 59.6907 33.4476 58.9202L30.6576 60.0231ZM39.4587 40.4204L40.5203 41.4801C40.5374 41.463 40.554 41.4456 40.5702 41.4277L39.4587 40.4204ZM42.6886 22.6112L43.9614 21.8175C43.9394 21.7823 43.9161 21.7481 43.8913 21.7148L42.6886 22.6112ZM37.3047 66.5229L36.0316 67.3162C36.0536 67.3514 36.077 67.3857 36.1017 67.4189L37.3047 66.5229ZM46.5515 30.217C48.0202 33.9378 47.5584 36.9102 46.1462 39.6134C44.6765 42.4265 42.1836 44.9459 39.4747 47.6574L41.5969 49.7777C44.2284 47.1438 47.0833 44.2984 48.8051 41.0025C50.5844 37.5968 51.1579 33.7162 49.342 29.1156L46.5515 30.217ZM33.4476 58.9202C31.9769 55.1998 32.4386 52.2277 33.8508 49.5246C35.3205 46.7113 37.8134 44.192 40.5203 41.4801L38.3971 39.3607C35.7685 41.9941 32.9135 44.8398 31.1918 48.1354C29.4125 51.5412 28.8389 55.4221 30.6576 60.0231L33.4476 58.9202ZM41.4158 23.4049C43.7338 27.122 43.8933 29.9233 43.155 32.2834C42.3758 34.7745 40.5407 36.9927 38.3472 39.4131L40.5702 41.4277C42.7287 39.0459 45.0165 36.3811 46.0182 33.179C47.0609 29.8459 46.6592 26.1436 43.9614 21.8175L41.4158 23.4049ZM38.5778 65.7297C36.2612 62.0117 36.1029 59.2102 36.8416 56.8505C37.6214 54.3598 39.456 52.1429 41.6473 49.7248L39.4243 47.7103C37.2682 50.0896 34.9809 52.7529 33.9787 55.9542C32.9355 59.2865 33.3353 62.9889 36.0316 67.3162L38.5778 65.7297ZM41.2003 69.2419L38.5077 65.6269L36.1017 67.4189L38.7944 71.034L41.2003 69.2419ZM38.7944 19.8964L41.4859 23.5076L43.8913 21.7148L41.1998 18.1036L38.7944 19.8964ZM45.5414 31.459C46.5315 32.7875 48.4111 33.0618 49.7396 32.0717C51.068 31.0816 51.3423 29.202 50.3522 27.8735L45.5414 31.459ZM39.9974 70.1379L37.7213 72.0923C38.6756 73.2037 40.2931 73.4634 41.5474 72.7065C42.8017 71.9496 43.3258 70.3975 42.7873 69.0351L39.9974 70.1379ZM47.4034 51.0916L49.5257 53.2119C49.5604 53.1772 49.5943 53.1416 49.6272 53.1053L47.4034 51.0916ZM50.2278 27.7119C49.1484 26.4549 47.2544 26.3108 45.9973 27.3902C44.7403 28.4696 44.5963 30.3636 45.6756 31.6206L50.2278 27.7119ZM39.9971 19L42.2728 17.0451C41.3182 15.934 39.7009 15.6747 38.4468 16.4316C37.1927 17.1886 36.6687 18.7406 37.2072 20.1028L39.9971 19ZM32.591 38.0512L30.4687 35.9309C30.4343 35.9653 30.4008 36.0006 30.3681 36.0367L32.591 38.0512ZM32.0526 59.4717L34.4585 57.6796C34.4168 57.6236 34.3732 57.5691 34.3277 57.5162L32.0526 59.4717ZM42.6886 22.6112L40.143 24.1987C40.1869 24.269 40.2336 24.3375 40.2832 24.404L42.6886 22.6112ZM37.3047 66.5229L39.8509 64.9364C39.807 64.866 39.7602 64.7974 39.7106 64.7309L37.3047 66.5229ZM42.7873 69.0351C41.4906 65.7548 41.8965 63.2372 43.1249 60.8862C44.4684 58.3151 46.78 55.9602 49.5257 53.2119L45.2812 48.9712C42.6913 51.5634 39.6552 54.5709 37.8072 58.1075C35.8441 61.8643 35.2147 66.1996 37.2074 71.2408L42.7873 69.0351ZM49.6272 53.1053C52.0532 50.4261 55.0055 47.0438 55.7947 42.6993C56.6325 38.0873 54.9534 33.2155 50.2278 27.7119L45.6756 31.6206C49.7512 36.3671 50.2846 39.4619 49.8913 41.627C49.4494 44.0596 47.727 46.2649 45.1797 49.0779L49.6272 53.1053ZM37.2072 20.1028C38.5041 23.3838 38.099 25.9017 36.8711 28.2529C35.5282 30.8244 33.2165 33.1806 30.4687 35.9309L34.7133 40.1716C37.306 37.5766 40.3421 34.5679 42.1895 31.0304C44.1519 27.2728 44.7796 22.9377 42.7871 17.8972L37.2072 20.1028ZM30.3681 36.0367C27.9431 38.7125 24.9922 42.0947 24.2045 46.4403C23.3684 51.0528 25.0487 55.9256 29.7775 61.4272L34.3277 57.5162C30.2504 52.7725 29.7157 49.6763 30.1083 47.5105C30.5492 45.0778 32.2706 42.8724 34.814 40.0658L30.3681 36.0367ZM50.3522 27.8735L45.094 20.8184L40.2832 24.404L45.5414 31.459L50.3522 27.8735ZM29.6467 61.2637L34.8988 68.315L39.7106 64.7309L34.4585 57.6796L29.6467 61.2637ZM34.7585 68.1094C35.5619 69.3988 36.5458 70.7233 37.7213 72.0923L42.2734 68.1836C41.2637 67.0076 40.4685 65.9277 39.8509 64.9364L34.7585 68.1094ZM45.2342 21.0237C44.4309 19.7357 43.4474 18.4125 42.2728 17.0451L37.7215 20.9549C38.7306 22.1296 39.5254 23.2083 40.143 24.1987L45.2342 21.0237Z" fill="white" mask="url(#path-2-outside-1_1241_51)"/>
</svg>
