<svg width="80" height="116" viewBox="0 0 80 116" fill="none" xmlns="http://www.w3.org/2000/svg">
<path d="M37.5437 0.101189C35.3901 0.30138 34.329 0.427815 33.184 0.628006C19.8315 2.94601 8.54865 11.923 3.19086 24.4929C0.701069 30.309 -0.423016 37.3578 0.144279 43.5111C0.806123 50.6863 2.98075 56.8291 6.9203 62.7294C7.42456 63.4775 9.06342 66.0695 10.5447 68.4718C13.9905 74.035 14.5052 74.8673 16.6379 78.3233C17.6149 79.8827 19.0751 82.2533 19.8945 83.5915C20.714 84.919 22.4894 87.7955 23.8341 89.966C27.8157 96.4037 31.4295 102.251 35.7473 109.248C37.985 112.872 39.8759 115.896 39.9495 115.97C40.065 116.086 40.2226 115.896 40.8214 114.916C41.2311 114.263 42.849 111.639 44.4248 109.089C48.5219 102.473 49.0997 101.524 49.8351 100.344C50.1923 99.7648 51.9677 96.8989 53.7747 93.9698C55.5816 91.0407 57.4726 87.9851 57.9768 87.1738C58.4811 86.3625 59.9414 83.9918 61.2335 81.9056C62.5257 79.8194 63.8704 77.6384 64.2276 77.0589C64.5848 76.4794 66.5808 73.2553 68.6609 69.8942C70.741 66.5331 72.7895 63.2562 73.2308 62.6241C76.7081 57.5034 78.9457 51.5082 79.7967 45.0283C80.0908 42.7524 80.0593 37.1998 79.7442 35.0187C79.0298 30.1299 77.8952 26.3789 75.9097 22.3646C71.0877 12.6395 62.7253 5.40098 52.3879 1.99773C47.713 0.469959 41.7774 -0.288657 37.5437 0.101189Z" fill="#3F4043"/>
<path fill-rule="evenodd" clip-rule="evenodd" d="M32.6797 19H47.3198C55.4138 19 62 29.0642 62 41.4346C62 53.805 55.4143 63.8692 47.3198 63.8692H32.6797C24.5851 63.8692 18 53.805 18 41.4346C18 29.0642 24.5851 19 32.6797 19ZM41.943 20.5653H32.6797C28.9293 20.5653 25.5436 23.0875 23.1508 27.1175L27.5508 30.8325L36.2538 26.7173C37.7888 24.0256 39.7349 21.8984 41.943 20.5653ZM25.9678 43.0093L32.7355 38.9062C33.0042 35.2679 33.8427 31.8901 35.1137 28.9886L27.7658 32.463C27.6588 32.5136 27.5446 32.5381 27.4313 32.5381C27.2503 32.5381 27.0703 32.475 26.9263 32.3534L22.3885 28.5226C20.8999 31.5207 19.9154 35.1792 19.6435 39.1754L25.9678 43.0093ZM25.5619 44.5928L19.5726 40.9624C19.5717 41.0256 19.5704 41.0887 19.5691 41.1517C19.5671 41.2457 19.5651 41.3395 19.5648 41.4336C19.5648 45.2341 20.2097 48.7977 21.3299 51.8703C21.3383 51.8734 21.3468 51.8764 21.3553 51.8793C21.3753 51.8862 21.3955 51.8932 21.4149 51.9027L29.7427 56.0397L34.498 52.342C33.3163 49.1108 32.6395 45.3916 32.6395 41.4341C32.6395 41.2775 32.6431 41.1225 32.6466 40.9674C32.648 40.9075 32.6493 40.8477 32.6505 40.7876L26.3732 44.5934C26.249 44.669 26.1081 44.7066 25.9678 44.7066C25.8269 44.7066 25.6866 44.669 25.5619 44.5928ZM22.2492 54.0659C24.6472 59.068 28.43 62.304 32.6797 62.304H41.9425C39.1386 60.6109 36.7547 57.6394 35.1022 53.8562L30.3156 57.5784C30.1753 57.6869 30.0057 57.7427 29.8351 57.7427C29.7166 57.7427 29.5972 57.7156 29.4871 57.6614L22.2492 54.0659ZM36.2105 52.5053C38.5328 58.385 42.6427 62.304 47.3198 62.304C54.5514 62.304 60.4342 52.942 60.4347 41.4346C60.4347 29.9272 54.5514 20.5653 47.3198 20.5653C40.0882 20.5653 34.2053 29.9272 34.2053 41.4346C34.2053 45.3499 34.8878 49.0158 36.0711 52.15C36.1494 52.2585 36.1948 52.3806 36.2105 52.5053ZM39.8897 41.4343C39.8897 33.8224 43.1533 27.8592 47.3196 27.8592C51.4858 27.8592 54.7494 33.8224 54.7494 41.4343C54.7494 49.0468 51.4863 55.01 47.3196 55.01C43.1528 55.01 39.8897 49.0468 39.8897 41.4343ZM41.455 41.4338C41.455 47.9443 44.1405 53.4442 47.3196 53.4442C50.4981 53.4442 53.1842 47.9443 53.1842 41.4338C53.1842 34.9238 50.4987 29.424 47.3196 29.424C44.1405 29.424 41.455 34.9238 41.455 41.4338Z" fill="white"/>
<path d="M41.943 20.5653L42.2015 20.9933L43.7386 20.0653H41.943V20.5653ZM23.1508 27.1175L22.7209 26.8623L22.5047 27.2264L22.8283 27.4996L23.1508 27.1175ZM27.5508 30.8325L27.2283 31.2145L27.4739 31.4219L27.7645 31.2845L27.5508 30.8325ZM36.2538 26.7173L36.4675 27.1694L36.61 27.102L36.6881 26.965L36.2538 26.7173ZM32.7355 38.9062L32.9948 39.3337L33.2152 39.2001L33.2342 38.943L32.7355 38.9062ZM25.9678 43.0093L25.7086 43.4369L25.9678 43.594L26.227 43.4369L25.9678 43.0093ZM35.1137 28.9886L35.5717 29.1892L36.1078 27.9655L34.9 28.5366L35.1137 28.9886ZM27.7658 32.463L27.552 32.0109L27.5519 32.011L27.7658 32.463ZM26.9263 32.3534L27.2488 31.9713L27.2488 31.9713L26.9263 32.3534ZM22.3885 28.5226L22.7111 28.1406L22.2241 27.7295L21.9407 28.3003L22.3885 28.5226ZM19.6435 39.1754L19.1447 39.1415L19.124 39.4452L19.3843 39.603L19.6435 39.1754ZM19.5726 40.9624L19.8318 40.5348L19.0842 40.0817L19.0726 40.9558L19.5726 40.9624ZM25.5619 44.5928L25.8225 44.1661L25.821 44.1653L25.5619 44.5928ZM19.5691 41.1517L19.0692 41.141L19.0692 41.141L19.5691 41.1517ZM19.5648 41.4336L19.0648 41.4319V41.4336H19.5648ZM21.3299 51.8703L20.8601 52.0416L20.9393 52.2589L21.1562 52.3392L21.3299 51.8703ZM21.3553 51.8793L21.1923 52.352L21.1924 52.352L21.3553 51.8793ZM21.4149 51.9027L21.6374 51.4549L21.6351 51.4538L21.4149 51.9027ZM29.7427 56.0397L29.5203 56.4875L29.8016 56.6273L30.0497 56.4344L29.7427 56.0397ZM34.498 52.342L34.805 52.7367L35.0929 52.5128L34.9676 52.1703L34.498 52.342ZM32.6466 40.9674L33.1465 40.9788L33.1465 40.9788L32.6466 40.9674ZM32.6505 40.7876L33.1504 40.7973L33.168 39.8892L32.3913 40.3601L32.6505 40.7876ZM26.3732 44.5934L26.114 44.1658L26.1131 44.1664L26.3732 44.5934ZM22.2492 54.0659L22.4717 53.6181L21.1701 52.9716L21.7983 54.282L22.2492 54.0659ZM41.9425 62.304V62.804H43.7379L42.201 61.8759L41.9425 62.304ZM35.1022 53.8562L35.5604 53.656L35.303 53.0666L34.7953 53.4615L35.1022 53.8562ZM30.3156 57.5784L30.6215 57.9739L30.6226 57.9731L30.3156 57.5784ZM29.4871 57.6614L29.2646 58.1091L29.266 58.1098L29.4871 57.6614ZM36.2105 52.5053L35.7144 52.5676L35.7222 52.6303L35.7454 52.689L36.2105 52.5053ZM60.4347 41.4346L60.9347 41.4346V41.4346H60.4347ZM36.0711 52.15L35.6034 52.3266L35.6268 52.3887L35.6656 52.4425L36.0711 52.15ZM47.3198 18.5H32.6797V19.5H47.3198V18.5ZM62.5 41.4346C62.5 35.166 60.8322 29.4592 58.1135 25.3046C55.398 21.1548 51.5909 18.5 47.3198 18.5V19.5C51.1427 19.5 54.6757 21.8773 57.2768 25.8522C59.8747 29.8223 61.5 35.3329 61.5 41.4346H62.5ZM47.3198 64.3692C51.5911 64.3692 55.3982 61.7145 58.1137 57.5646C60.8323 53.41 62.5 47.7032 62.5 41.4346H61.5C61.5 47.5364 59.8748 53.0469 57.277 57.0171C54.676 60.9919 51.143 63.3692 47.3198 63.3692V64.3692ZM32.6797 64.3692H47.3198V63.3692H32.6797V64.3692ZM17.5 41.4346C17.5 47.7032 19.1675 53.41 21.886 57.5646C24.6014 61.7145 28.4083 64.3692 32.6797 64.3692V63.3692C28.8565 63.3692 25.3236 60.9919 22.7228 57.0171C20.125 53.0469 18.5 47.5364 18.5 41.4346H17.5ZM32.6797 18.5C28.4083 18.5 24.6014 21.1548 21.886 25.3046C19.1675 29.4592 17.5 35.166 17.5 41.4346H18.5C18.5 35.3328 20.125 29.8223 22.7228 25.8522C25.3236 21.8773 28.8565 19.5 32.6797 19.5V18.5ZM32.6797 21.0653H41.943V20.0653H32.6797V21.0653ZM23.5807 27.3728C25.9237 23.4267 29.1724 21.0653 32.6797 21.0653V20.0653C28.6862 20.0653 25.1635 22.7483 22.7209 26.8623L23.5807 27.3728ZM27.8734 30.4504L23.4734 26.7355L22.8283 27.4996L27.2283 31.2145L27.8734 30.4504ZM36.04 26.2653L27.3371 30.3804L27.7645 31.2845L36.4675 27.1694L36.04 26.2653ZM41.6846 20.1372C39.3878 21.5239 37.3867 23.7214 35.8194 26.4697L36.6881 26.965C38.1909 24.3298 40.0821 22.2729 42.2015 20.9933L41.6846 20.1372ZM32.4763 38.4786L25.7086 42.5817L26.227 43.4369L32.9948 39.3337L32.4763 38.4786ZM34.6557 28.7879C33.3604 31.745 32.5095 35.1787 32.2369 38.8693L33.2342 38.943C33.499 35.3572 34.325 32.0352 35.5717 29.1892L34.6557 28.7879ZM27.9795 32.915L35.3275 29.4406L34.9 28.5366L27.552 32.0109L27.9795 32.915ZM27.4313 33.0381C27.6168 33.0381 27.8043 32.9979 27.9796 32.9149L27.5519 32.011C27.5133 32.0293 27.4723 32.0381 27.4313 32.0381V33.0381ZM26.6037 32.7355C26.8398 32.9348 27.1347 33.0381 27.4313 33.0381V32.0381C27.3659 32.0381 27.3007 32.0152 27.2488 31.9713L26.6037 32.7355ZM22.066 28.9047L26.6037 32.7355L27.2488 31.9713L22.7111 28.1406L22.066 28.9047ZM20.1424 39.2093C20.4102 35.2722 21.3798 31.6786 22.8364 28.745L21.9407 28.3003C20.4201 31.3628 19.4205 35.0863 19.1447 39.1415L20.1424 39.2093ZM26.227 42.5817L19.9027 38.7478L19.3843 39.603L25.7086 43.4369L26.227 42.5817ZM19.3134 41.39L25.3027 45.0204L25.821 44.1653L19.8318 40.5348L19.3134 41.39ZM20.069 41.1623C20.0703 41.0996 20.0717 41.0346 20.0725 40.9691L19.0726 40.9558C19.0718 41.0167 19.0705 41.0777 19.0692 41.141L20.069 41.1623ZM20.0648 41.4352C20.065 41.3464 20.0669 41.257 20.069 41.1623L19.0692 41.141C19.0672 41.2343 19.0651 41.3326 19.0648 41.4319L20.0648 41.4352ZM21.7996 51.6991C20.7004 48.684 20.0648 45.1786 20.0648 41.4336H19.0648C19.0648 45.2895 19.7189 48.9114 20.8601 52.0416L21.7996 51.6991ZM21.5182 51.4066C21.5086 51.4033 21.5056 51.4022 21.5035 51.4015L21.1562 52.3392C21.1709 52.3447 21.1849 52.3495 21.1923 52.352L21.5182 51.4066ZM21.6351 51.4538C21.5832 51.4283 21.5336 51.4119 21.5181 51.4066L21.1924 52.352C21.1977 52.3539 21.2009 52.355 21.2037 52.356C21.2064 52.3569 21.2075 52.3573 21.2077 52.3574C21.2083 52.3576 21.2031 52.3557 21.1947 52.3516L21.6351 51.4538ZM29.9652 55.5919L21.6374 51.4549L21.1925 52.3505L29.5203 56.4875L29.9652 55.5919ZM34.1911 51.9473L29.4358 55.645L30.0497 56.4344L34.805 52.7367L34.1911 51.9473ZM32.1395 41.4341C32.1395 45.4477 32.8257 49.2251 34.0285 52.5137L34.9676 52.1703C33.8068 48.9964 33.1395 45.3356 33.1395 41.4341H32.1395ZM32.1467 40.956C32.1432 41.1102 32.1395 41.2709 32.1395 41.4341H33.1395C33.1395 41.2841 33.1429 41.1348 33.1465 40.9788L32.1467 40.956ZM32.1506 40.778C32.1494 40.837 32.1481 40.896 32.1467 40.956L33.1465 40.9788C33.1478 40.9191 33.1492 40.8583 33.1504 40.7973L32.1506 40.778ZM26.6324 45.0209L32.9097 41.2152L32.3913 40.3601L26.114 44.1658L26.6324 45.0209ZM25.9678 45.2066C26.1969 45.2066 26.4283 45.1453 26.6333 45.0204L26.1131 44.1664C26.0698 44.1927 26.0194 44.2066 25.9678 44.2066V45.2066ZM25.3012 45.0195C25.5067 45.1451 25.7377 45.2066 25.9678 45.2066V44.2066C25.9161 44.2066 25.8664 44.193 25.8225 44.1661L25.3012 45.0195ZM32.6797 61.804C28.7059 61.804 25.0585 58.7693 22.7001 53.8498L21.7983 54.282C24.236 59.3668 28.154 62.804 32.6797 62.804V61.804ZM41.9425 61.804H32.6797V62.804H41.9425V61.804ZM34.644 54.0563C36.3259 57.907 38.769 60.9718 41.6841 62.732L42.201 61.8759C39.5081 60.2499 37.1834 57.3719 35.5604 53.656L34.644 54.0563ZM30.6226 57.9731L35.4092 54.2509L34.7953 53.4615L30.0087 57.1837L30.6226 57.9731ZM29.8351 58.2427C30.1146 58.2427 30.3921 58.1513 30.6215 57.9739L30.0098 57.1828C29.9584 57.2226 29.8968 57.2427 29.8351 57.2427V58.2427ZM29.266 58.1098C29.4454 58.1982 29.6406 58.2427 29.8351 58.2427V57.2427C29.7927 57.2427 29.7489 57.233 29.7081 57.2129L29.266 58.1098ZM22.0268 54.5137L29.2646 58.1091L29.7095 57.2136L22.4717 53.6181L22.0268 54.5137ZM47.3198 61.804C42.9465 61.804 38.9667 58.1225 36.6755 52.3216L35.7454 52.689C38.0989 58.6475 42.3389 62.804 47.3198 62.804V61.804ZM59.9347 41.4346C59.9345 47.1088 58.483 52.2308 56.1655 55.9185C53.8437 59.6133 50.7018 61.804 47.3198 61.804V62.804C51.1693 62.804 54.5846 60.3137 57.0122 56.4506C59.4443 52.5805 60.9345 47.2679 60.9347 41.4346L59.9347 41.4346ZM47.3198 21.0653C50.7018 21.0653 53.8438 23.256 56.1657 26.9507C58.4832 30.6384 59.9347 35.7605 59.9347 41.4346H60.9347C60.9347 35.6014 59.4445 30.2887 57.0124 26.4186C54.5848 22.5556 51.1693 20.0653 47.3198 20.0653V21.0653ZM34.7053 41.4346C34.7053 35.7605 36.1567 30.6384 38.4741 26.9507C40.7958 23.2559 43.9378 21.0653 47.3198 21.0653V20.0653C43.4702 20.0653 40.0549 22.5556 37.6274 26.4186C35.1954 30.2888 33.7053 35.6014 33.7053 41.4346H34.7053ZM36.5389 51.9734C35.3781 48.8988 34.7053 45.2931 34.7053 41.4346H33.7053C33.7053 45.4067 34.3975 49.1327 35.6034 52.3266L36.5389 51.9734ZM36.7066 52.4431C36.681 52.2392 36.6062 52.0371 36.4767 51.8575L35.6656 52.4425C35.6926 52.4799 35.7086 52.5221 35.7144 52.5676L36.7066 52.4431ZM47.3196 27.3592C44.9734 27.3592 42.9813 29.0352 41.6037 31.5522C40.2184 34.0833 39.3897 37.5636 39.3897 41.4343H40.3897C40.3897 37.6931 41.1928 34.3859 42.4809 32.0323C43.7767 29.6648 45.4994 28.3592 47.3196 28.3592V27.3592ZM55.2494 41.4343C55.2494 37.5636 54.4207 34.0833 53.0355 31.5522C51.6579 29.0352 49.6657 27.3592 47.3196 27.3592V28.3592C49.1397 28.3592 50.8624 29.6648 52.1582 32.0323C53.4463 34.3859 54.2494 37.6931 54.2494 41.4343H55.2494ZM47.3196 55.51C49.6659 55.51 51.6581 53.834 53.0357 51.3169C54.4208 48.7858 55.2494 45.3053 55.2494 41.4343H54.2494C54.2494 45.1759 53.4465 48.4832 52.1584 50.8368C50.8627 53.2044 49.14 54.51 47.3196 54.51V55.51ZM39.3897 41.4343C39.3897 45.3053 40.2183 48.7858 41.6035 51.3169C42.981 53.834 44.9732 55.51 47.3196 55.51V54.51C45.4992 54.51 43.7764 53.2044 42.4807 50.8368C41.1927 48.4832 40.3897 45.1759 40.3897 41.4343H39.3897ZM47.3196 52.9442C46.0333 52.9442 44.6936 51.8098 43.6444 49.6611C42.6146 47.5521 41.955 44.627 41.955 41.4338H40.955C40.955 44.7512 41.6381 47.8312 42.7458 50.0999C43.8342 52.3287 45.4268 53.9442 47.3196 53.9442V52.9442ZM52.6842 41.4338C52.6842 44.627 52.0244 47.5521 50.9945 49.6611C49.9453 51.8098 48.6056 52.9442 47.3196 52.9442V53.9442C49.2121 53.9442 50.8047 52.3287 51.8931 50.0999C53.0009 47.8313 53.6842 44.7512 53.6842 41.4338H52.6842ZM47.3196 29.924C48.6059 29.924 49.9455 31.0584 50.9947 33.207C52.0245 35.3159 52.6842 38.2409 52.6842 41.4338H53.6842C53.6842 38.1167 53.001 35.0368 51.8933 32.7683C50.805 30.5395 49.2124 28.924 47.3196 28.924V29.924ZM41.955 41.4338C41.955 38.2409 42.6146 35.3159 43.6444 33.207C44.6936 31.0584 46.0333 29.924 47.3196 29.924V28.924C45.4268 28.924 43.8342 30.5395 42.7458 32.7683C41.6381 35.0368 40.955 38.1167 40.955 41.4338H41.955Z" fill="white"/>
</svg>
