<svg width="80" height="116" viewBox="0 0 80 116" fill="none" xmlns="http://www.w3.org/2000/svg">
<path d="M37.5437 0.101189C35.3901 0.30138 34.329 0.427815 33.184 0.628006C19.8315 2.94601 8.54865 11.923 3.19086 24.4929C0.701069 30.309 -0.423016 37.3578 0.144279 43.5111C0.806123 50.6863 2.98075 56.8291 6.9203 62.7294C7.42456 63.4775 9.06342 66.0695 10.5447 68.4718C13.9905 74.035 14.5052 74.8673 16.6379 78.3233C17.6149 79.8827 19.0751 82.2533 19.8945 83.5915C20.714 84.919 22.4894 87.7955 23.8341 89.966C27.8157 96.4037 31.4295 102.251 35.7473 109.248C37.985 112.872 39.8759 115.896 39.9495 115.97C40.065 116.086 40.2226 115.896 40.8214 114.916C41.2311 114.263 42.849 111.639 44.4248 109.089C48.5219 102.473 49.0997 101.524 49.8351 100.344C50.1923 99.7648 51.9677 96.8989 53.7747 93.9698C55.5816 91.0407 57.4726 87.9851 57.9768 87.1738C58.4811 86.3625 59.9414 83.9918 61.2335 81.9056C62.5257 79.8194 63.8704 77.6384 64.2276 77.0589C64.5848 76.4794 66.5808 73.2553 68.6609 69.8942C70.741 66.5331 72.7895 63.2562 73.2308 62.6241C76.7081 57.5034 78.9457 51.5082 79.7967 45.0283C80.0908 42.7524 80.0593 37.1998 79.7442 35.0187C79.0298 30.1299 77.8952 26.3789 75.9097 22.3646C71.0877 12.6395 62.7253 5.40098 52.3879 1.99773C47.713 0.469959 41.7774 -0.288657 37.5437 0.101189Z" fill="#3F4043"/>
<path fill-rule="evenodd" clip-rule="evenodd" d="M34.6762 45H45.3235C51.2101 45 56 52.3194 56 61.3161C56 70.3127 51.2104 77.6322 45.3235 77.6322H34.6762C28.7892 77.6322 24 70.3127 24 61.3161C24 52.3194 28.7892 45 34.6762 45ZM41.4131 46.1384H34.6762C31.9486 46.1384 29.4863 47.9727 27.746 50.9037L30.946 53.6054L37.2755 50.6126C38.3918 48.655 39.8072 47.1079 41.4131 46.1384ZM29.7948 62.4613L34.7168 59.4772C34.9122 56.8312 35.522 54.3746 36.4463 52.2644L31.1024 54.7912C31.0246 54.8281 30.9415 54.8459 30.8591 54.8459C30.7275 54.8459 30.5966 54.8 30.4918 54.7116L27.1917 51.9256C26.109 54.1059 25.393 56.7667 25.1953 59.673L29.7948 62.4613ZM29.4995 63.613L25.1437 60.9727C25.1431 61.0186 25.1421 61.0645 25.1411 61.1103C25.1397 61.1787 25.1382 61.2469 25.138 61.3153C25.138 64.0793 25.607 66.671 26.4217 68.9057C26.4278 68.908 26.434 68.9101 26.4402 68.9122C26.4548 68.9172 26.4695 68.9223 26.4836 68.9292L32.5402 71.938L35.9986 69.2487C35.1391 66.8987 34.6469 64.1939 34.6469 61.3157C34.6469 61.2018 34.6495 61.0891 34.6521 60.9763C34.6531 60.9327 34.6541 60.8892 34.6549 60.8456L30.0896 63.6133C29.9993 63.6684 29.8968 63.6957 29.7948 63.6957C29.6923 63.6957 29.5902 63.6684 29.4995 63.613ZM27.0903 70.5025C28.8343 74.1404 31.5854 76.4938 34.6762 76.4938H41.4127C39.3735 75.2624 37.6397 73.1014 36.438 70.3499L32.9568 73.057C32.8547 73.1359 32.7314 73.1765 32.6073 73.1765C32.5212 73.1765 32.4343 73.1568 32.3542 73.1173L27.0903 70.5025ZM37.244 69.3675C38.933 73.6437 41.922 76.4938 45.3235 76.4938C50.5828 76.4938 54.8612 69.6851 54.8616 61.3161C54.8616 52.9471 50.5828 46.1384 45.3235 46.1384C40.0641 46.1384 35.7857 52.9471 35.7857 61.3161C35.7857 64.1636 36.282 66.8297 37.1427 69.1091C37.1996 69.188 37.2326 69.2768 37.244 69.3675ZM39.9195 61.3158C39.9195 55.7798 42.293 51.4429 45.323 51.4429C48.353 51.4429 50.7266 55.7798 50.7266 61.3158C50.7266 66.8521 48.3534 71.189 45.323 71.189C42.2927 71.189 39.9195 66.8521 39.9195 61.3158ZM41.0579 61.3154C41.0579 66.0503 43.011 70.0502 45.323 70.0502C47.6347 70.0502 49.5882 66.0503 49.5882 61.3154C49.5882 56.5809 47.6351 52.581 45.323 52.581C43.011 52.581 41.0579 56.5809 41.0579 61.3154Z" fill="white"/>
<path d="M41.4131 46.1384L41.6715 46.5664L43.2087 45.6384H41.4131V46.1384ZM27.746 50.9037L27.3161 50.6484L27.0999 51.0125L27.4235 51.2857L27.746 50.9037ZM30.946 53.6054L30.6235 53.9875L30.8691 54.1949L31.1598 54.0574L30.946 53.6054ZM37.2755 50.6126L37.4892 51.0646L37.6317 50.9972L37.7098 50.8603L37.2755 50.6126ZM34.7168 59.4772L34.976 59.9048L35.1964 59.7711L35.2154 59.514L34.7168 59.4772ZM29.7948 62.4613L29.5356 62.8889L29.7948 63.046L30.054 62.8889L29.7948 62.4613ZM36.4463 52.2644L36.9043 52.465L37.4404 51.2413L36.2326 51.8124L36.4463 52.2644ZM31.1024 54.7912L30.8887 54.3392L30.8885 54.3393L31.1024 54.7912ZM30.4918 54.7116L30.8144 54.3295L30.8144 54.3295L30.4918 54.7116ZM27.1917 51.9256L27.5142 51.5435L27.0272 51.1324L26.7438 51.7032L27.1917 51.9256ZM25.1953 59.673L24.6965 59.6391L24.6758 59.9428L24.9361 60.1006L25.1953 59.673ZM25.1437 60.9727L25.4029 60.5451L24.6553 60.092L24.6437 60.9661L25.1437 60.9727ZM29.4995 63.613L29.7602 63.1863L29.7587 63.1854L29.4995 63.613ZM25.1411 61.1103L25.641 61.1209L25.641 61.1209L25.1411 61.1103ZM25.138 61.3153L24.638 61.3137V61.3153H25.138ZM26.4217 68.9057L25.952 69.077L26.0312 69.2943L26.2481 69.3746L26.4217 68.9057ZM26.4402 68.9122L26.6031 68.4395L26.603 68.4395L26.4402 68.9122ZM26.4836 68.9292L26.706 68.4814L26.7038 68.4803L26.4836 68.9292ZM32.5402 71.938L32.3177 72.3858L32.5991 72.5255L32.8471 72.3327L32.5402 71.938ZM35.9986 69.2487L36.3055 69.6434L36.5934 69.4195L36.4682 69.077L35.9986 69.2487ZM34.6521 60.9763L34.1522 60.9649L34.1522 60.9649L34.6521 60.9763ZM34.6549 60.8456L35.1548 60.8552L35.1724 59.9471L34.3957 60.418L34.6549 60.8456ZM30.0896 63.6133L29.8304 63.1858L29.8295 63.1864L30.0896 63.6133ZM27.0903 70.5025L27.3128 70.0547L26.0112 69.4081L26.6395 70.7186L27.0903 70.5025ZM41.4127 76.4938V76.9938H43.2081L41.6712 76.0658L41.4127 76.4938ZM36.438 70.3499L36.8962 70.1498L36.6388 69.5604L36.1311 69.9552L36.438 70.3499ZM32.9568 73.057L33.2627 73.4526L33.2637 73.4517L32.9568 73.057ZM32.3542 73.1173L32.1318 73.5651L32.1332 73.5658L32.3542 73.1173ZM37.244 69.3675L36.7479 69.4298L36.7557 69.4924L36.7789 69.5512L37.244 69.3675ZM54.8616 61.3161L55.3616 61.3161V61.3161H54.8616ZM37.1427 69.1091L36.6749 69.2857L36.6983 69.3478L36.7371 69.4016L37.1427 69.1091ZM45.3235 44.5H34.6762V45.5H45.3235V44.5ZM56.5 61.3161C56.5 56.7343 55.2812 52.5572 53.2876 49.5105C51.297 46.4686 48.4909 44.5 45.3235 44.5V45.5C48.0427 45.5 50.5748 47.1911 52.4508 50.0581C54.3238 52.9203 55.5 56.9012 55.5 61.3161H56.5ZM45.3235 78.1322C48.491 78.1322 51.2972 76.1636 53.2877 73.1217C55.2813 70.075 56.5 65.8978 56.5 61.3161H55.5C55.5 65.731 54.3239 69.7119 52.451 72.5741C50.575 75.441 48.0429 77.1322 45.3235 77.1322V78.1322ZM34.6762 78.1322H45.3235V77.1322H34.6762V78.1322ZM23.5 61.3161C23.5 65.8978 24.7186 70.075 26.7121 73.1216C28.7025 76.1636 31.5086 78.1322 34.6762 78.1322V77.1322C31.9568 77.1322 29.4248 75.441 27.5489 72.5741C25.676 69.7119 24.5 65.731 24.5 61.3161H23.5ZM34.6762 44.5C31.5086 44.5 28.7025 46.4686 26.7121 49.5105C24.7186 52.5572 23.5 56.7343 23.5 61.3161H24.5C24.5 56.9012 25.676 52.9203 27.5489 50.0581C29.4248 47.1911 31.9568 45.5 34.6762 45.5V44.5ZM34.6762 46.6384H41.4131V45.6384H34.6762V46.6384ZM28.176 51.1589C29.8664 48.3119 32.1917 46.6384 34.6762 46.6384V45.6384C31.7054 45.6384 29.1062 47.6335 27.3161 50.6484L28.176 51.1589ZM31.2686 53.2234L28.0686 50.5216L27.4235 51.2857L30.6235 53.9875L31.2686 53.2234ZM37.0617 50.1606L30.7323 53.1534L31.1598 54.0574L37.4892 51.0646L37.0617 50.1606ZM41.1547 45.7103C39.4601 46.7334 37.9897 48.3508 36.8411 50.3649L37.7098 50.8603C38.794 48.9592 40.1543 47.4824 41.6715 46.5664L41.1547 45.7103ZM34.4575 59.0497L29.5355 62.0337L30.054 62.8889L34.976 59.9048L34.4575 59.0497ZM35.9884 52.0638C35.0397 54.2295 34.4174 56.742 34.2181 59.4404L35.2154 59.514C35.4069 56.9205 36.0043 54.5197 36.9043 52.465L35.9884 52.0638ZM31.3161 55.2433L36.6601 52.7164L36.2326 51.8124L30.8887 54.3392L31.3161 55.2433ZM30.8591 55.3459C31.0138 55.3459 31.1701 55.3124 31.3162 55.2432L30.8885 54.3393C30.8791 54.3438 30.8692 54.3459 30.8591 54.3459V55.3459ZM30.1693 55.0936C30.3661 55.2598 30.6119 55.3459 30.8591 55.3459V54.3459C30.8431 54.3459 30.827 54.3402 30.8144 54.3295L30.1693 55.0936ZM26.8691 52.3076L30.1693 55.0936L30.8144 54.3295L27.5142 51.5435L26.8691 52.3076ZM25.6942 59.707C25.8878 56.8596 26.5889 54.2638 27.6395 52.1479L26.7438 51.7032C25.6292 53.948 24.8982 56.6738 24.6965 59.6391L25.6942 59.707ZM30.054 62.0337L25.4545 59.2455L24.9361 60.1006L29.5356 62.8889L30.054 62.0337ZM24.8845 61.4003L29.2404 64.0406L29.7587 63.1854L25.4029 60.5451L24.8845 61.4003ZM25.641 61.1209C25.642 61.0755 25.643 61.0276 25.6437 60.9793L24.6437 60.9661C24.6432 61.0097 24.6422 61.0535 24.6413 61.0997L25.641 61.1209ZM25.638 61.317C25.6382 61.2538 25.6396 61.19 25.641 61.1209L24.6413 61.0997C24.6398 61.1673 24.6383 61.24 24.638 61.3137L25.638 61.317ZM26.8915 68.7344C26.0978 66.5574 25.638 64.0239 25.638 61.3153H24.638C24.638 64.1348 25.1163 66.7847 25.952 69.077L26.8915 68.7344ZM26.603 68.4395C26.5997 68.4383 26.598 68.4377 26.5965 68.4372C26.5952 68.4367 26.5949 68.4367 26.5954 68.4368L26.2481 69.3746C26.2605 69.3792 26.272 69.3831 26.2774 69.385L26.603 68.4395ZM26.7038 68.4803C26.6572 68.4575 26.613 68.4429 26.6031 68.4395L26.2773 69.385C26.2813 69.3863 26.2831 69.3869 26.2846 69.3875C26.2858 69.3879 26.2856 69.3878 26.2844 69.3874C26.2823 69.3866 26.2743 69.3835 26.2633 69.3781L26.7038 68.4803ZM32.7626 71.4902L26.706 68.4814L26.2611 69.377L32.3177 72.3858L32.7626 71.4902ZM35.6917 68.854L32.2332 71.5433L32.8471 72.3327L36.3055 69.6434L35.6917 68.854ZM34.1469 61.3157C34.1469 64.25 34.6485 67.0131 35.529 69.4205L36.4682 69.077C35.6296 66.7843 35.1469 64.1379 35.1469 61.3157H34.1469ZM34.1522 60.9649C34.1497 61.0768 34.1469 61.1952 34.1469 61.3157H35.1469C35.1469 61.2084 35.1494 61.1014 35.1519 60.9877L34.1522 60.9649ZM34.155 60.8359C34.1542 60.8785 34.1532 60.9212 34.1522 60.9649L35.1519 60.9877C35.1529 60.9443 35.1539 60.8999 35.1548 60.8552L34.155 60.8359ZM30.3488 64.0409L34.9141 61.2731L34.3957 60.418L29.8304 63.1858L30.3488 64.0409ZM29.7948 64.1957C29.9856 64.1957 30.1786 64.1446 30.3497 64.0403L29.8295 63.1864C29.82 63.1921 29.808 63.1957 29.7948 63.1957V64.1957ZM29.2389 64.0397C29.4104 64.1444 29.6031 64.1957 29.7948 64.1957V63.1957C29.7815 63.1957 29.7701 63.1923 29.7602 63.1863L29.2389 64.0397ZM34.6762 75.9938C31.8614 75.9938 29.2456 73.8416 27.5412 70.2863L26.6395 70.7186C28.4231 74.4391 31.3095 76.9938 34.6762 76.9938V75.9938ZM41.4127 75.9938H34.6762V76.9938H41.4127V75.9938ZM35.9798 70.5501C37.211 73.3689 39.0039 75.6234 41.1543 76.9218L41.6712 76.0658C39.7431 74.9015 38.0685 72.8339 36.8962 70.1498L35.9798 70.5501ZM33.2637 73.4517L36.7449 70.7446L36.1311 69.9552L32.6499 72.6623L33.2637 73.4517ZM32.6073 73.6765C32.8403 73.6765 33.0716 73.6003 33.2627 73.4526L32.651 72.6615C32.6379 72.6716 32.6225 72.6765 32.6073 72.6765V73.6765ZM32.1332 73.5658C32.2825 73.6394 32.4451 73.6765 32.6073 73.6765V72.6765C32.5973 72.6765 32.5861 72.6742 32.5753 72.6689L32.1332 73.5658ZM26.8679 70.9503L32.1318 73.5651L32.5767 72.6696L27.3128 70.0547L26.8679 70.9503ZM45.3235 75.9938C42.2257 75.9938 39.3669 73.3812 37.709 69.1838L36.7789 69.5512C38.499 73.9062 41.6182 76.9938 45.3235 76.9938V75.9938ZM54.3616 61.3161C54.3614 65.4211 53.3111 69.1202 51.6413 71.7773C49.9671 74.4414 47.7194 75.9938 45.3235 75.9938V76.9938C48.1869 76.9938 50.708 75.1418 52.488 72.3094C54.2724 69.4699 55.3614 65.5802 55.3616 61.3161L54.3616 61.3161ZM45.3235 46.6384C47.7194 46.6384 49.9672 48.1907 51.6414 50.8549C53.3112 53.512 54.3616 57.2111 54.3616 61.3161H55.3616C55.3616 57.052 54.2726 53.1623 52.4881 50.3228C50.7081 47.4904 48.1869 45.6384 45.3235 45.6384V46.6384ZM36.2857 61.3161C36.2857 57.2111 37.336 53.512 39.0057 50.8549C40.6798 48.1907 42.9276 46.6384 45.3235 46.6384V45.6384C42.46 45.6384 39.9389 47.4904 38.159 50.3228C36.3746 53.1623 35.2857 57.052 35.2857 61.3161H36.2857ZM37.6104 68.9325C36.7723 66.7127 36.2857 64.1068 36.2857 61.3161H35.2857C35.2857 64.2204 35.7917 66.9466 36.6749 69.2857L37.6104 68.9325ZM37.7401 69.3052C37.7188 69.1354 37.6564 68.9666 37.5482 68.8166L36.7371 69.4016C36.7428 69.4094 36.7464 69.4183 36.7479 69.4298L37.7401 69.3052ZM45.323 50.9429C43.545 50.9429 42.0594 52.2124 41.0464 54.0633C40.0257 55.9283 39.4195 58.4831 39.4195 61.3158H40.4195C40.4195 58.6125 41.0001 56.2309 41.9236 54.5434C42.8549 52.8419 44.071 51.9429 45.323 51.9429V50.9429ZM51.2266 61.3158C51.2266 58.4831 50.6204 55.9283 49.5997 54.0633C48.5866 52.2124 47.101 50.9429 45.323 50.9429V51.9429C46.575 51.9429 47.7912 52.8419 48.7225 54.5434C49.646 56.2309 50.2266 58.6125 50.2266 61.3158H51.2266ZM45.323 71.689C47.1012 71.689 48.5868 70.4195 49.5998 68.5686C50.6205 66.7035 51.2266 64.1487 51.2266 61.3158H50.2266C50.2266 64.0192 49.6461 66.401 48.7226 68.0885C47.7914 69.79 46.5752 70.689 45.323 70.689V71.689ZM39.4195 61.3158C39.4195 64.1487 40.0256 66.7035 41.0463 68.5686C42.0593 70.4195 43.5449 71.689 45.323 71.689V70.689C44.0708 70.689 42.8547 69.79 41.9235 68.0885C41 66.401 40.4195 64.0192 40.4195 61.3158H39.4195ZM45.323 69.5502C44.4703 69.5502 43.5305 68.7908 42.7727 67.239C42.0344 65.727 41.5579 63.6208 41.5579 61.3154H40.5579C40.5579 63.745 41.0579 66.0061 41.8741 67.6778C42.671 69.3097 43.8638 70.5502 45.323 70.5502V69.5502ZM49.0882 61.3154C49.0882 63.6207 48.6116 65.727 47.8732 67.239C47.1154 68.7908 46.1756 69.5502 45.323 69.5502V70.5502C46.7821 70.5502 47.9749 69.3097 48.7718 67.6778C49.5881 66.0062 50.0882 63.745 50.0882 61.3154H49.0882ZM45.323 53.081C46.1758 53.081 47.1156 53.8404 47.8733 55.3921C48.6116 56.9041 49.0882 59.0102 49.0882 61.3154H50.0882C50.0882 58.886 49.5882 56.6249 48.7719 54.9533C47.9751 53.3215 46.7823 52.081 45.323 52.081V53.081ZM41.5579 61.3154C41.5579 59.0102 42.0344 56.9041 42.7727 55.3921C43.5304 53.8404 44.4703 53.081 45.323 53.081V52.081C43.8638 52.081 42.671 53.3215 41.8741 54.9533C41.0579 56.6249 40.5579 58.886 40.5579 61.3154H41.5579Z" fill="white"/>
<path fill-rule="evenodd" clip-rule="evenodd" d="M57.8311 30.2917L44.8967 19.1682V14.5134C44.8967 14.2296 44.5906 14 44.2134 14H35.7862C35.4086 14 35.103 14.2296 35.103 14.5134V19.1682L22.1686 30.2917C21.9923 30.4433 21.9504 30.6586 22.0611 30.8417C22.1718 31.0251 22.415 31.1429 22.6833 31.1429H57.3173C57.5851 31.1429 57.8283 31.0251 57.939 30.8417C58.0497 30.6586 58.0074 30.4433 57.8311 30.2917ZM24.1869 30.1161L36.3005 19.6987C36.4094 19.6052 36.4695 19.4851 36.4695 19.3609V15.0267H43.5302V19.3609C43.5302 19.4851 43.5903 19.6049 43.6987 19.6987L55.8123 30.1161H24.1869ZM23.4078 34.2823C23.0301 34.2823 22.7245 34.5884 22.7245 34.9656V38.8091C22.7245 39.1862 23.0301 39.4923 23.4078 39.4923C23.7854 39.4923 24.091 39.1862 24.091 38.8091V34.9656C24.091 34.5884 23.7849 34.2823 23.4078 34.2823ZM29.36 34.9656C29.36 34.5884 29.6656 34.2823 30.0433 34.2823C30.4209 34.2823 30.7265 34.5884 30.7265 34.9656V38.8091C30.7265 39.1862 30.4209 39.4923 30.0433 39.4923C29.6656 39.4923 29.36 39.1862 29.36 38.8091V34.9656ZM36.6835 34.2823C36.3059 34.2823 36.0003 34.5884 36.0003 34.9656V38.8091C36.0003 39.1862 36.3059 39.4923 36.6835 39.4923C37.0611 39.4923 37.3668 39.1862 37.3668 38.8091V34.9656C37.3668 34.5884 37.0607 34.2823 36.6835 34.2823ZM42.6358 34.9656C42.6358 34.5884 42.9419 34.2823 43.319 34.2823C43.6962 34.2823 44.0023 34.5884 44.0023 34.9656V38.8091C44.0023 39.1862 43.6962 39.4923 43.319 39.4923C42.9419 39.4923 42.6358 39.1862 42.6358 38.8091V34.9656ZM49.9559 34.2823C49.5788 34.2823 49.2727 34.5884 49.2727 34.9656V38.8091C49.2727 39.1862 49.5788 39.4923 49.9559 39.4923C50.3331 39.4923 50.6392 39.1862 50.6392 38.8091V34.9656C50.6392 34.5884 50.3331 34.2823 49.9559 34.2823ZM55.9096 34.9656C55.9096 34.5884 56.2157 34.2823 56.5929 34.2823C56.97 34.2823 57.2761 34.5884 57.2761 34.9656V38.8091C57.2761 39.1862 56.97 39.4923 56.5929 39.4923C56.2157 39.4923 55.9096 39.1862 55.9096 38.8091V34.9656Z" fill="white"/>
<path d="M44.8967 19.1682H44.3967V19.3977L44.5707 19.5473L44.8967 19.1682ZM57.8311 30.2917L58.1571 29.9126L58.1571 29.9126L57.8311 30.2917ZM35.103 19.1682L35.429 19.5473L35.603 19.3977V19.1682H35.103ZM22.1686 30.2917L21.8426 29.9126L21.8426 29.9126L22.1686 30.2917ZM22.0611 30.8417L22.4892 30.5834L22.489 30.583L22.0611 30.8417ZM57.939 30.8417L57.5111 30.583L57.5109 30.5834L57.939 30.8417ZM36.3005 19.6987L35.9749 19.3192L35.9745 19.3196L36.3005 19.6987ZM24.1869 30.1161L23.8609 29.737L22.8387 30.6161H24.1869V30.1161ZM36.4695 15.0267V14.5267H35.9695V15.0267H36.4695ZM43.5302 15.0267H44.0302V14.5267H43.5302V15.0267ZM43.6987 19.6987L43.3716 20.0768L43.3727 20.0778L43.6987 19.6987ZM55.8123 30.1161V30.6161H57.1605L56.1383 29.737L55.8123 30.1161ZM44.5707 19.5473L57.5051 30.6708L58.1571 29.9126L45.2227 18.7891L44.5707 19.5473ZM44.3967 14.5134V19.1682H45.3967V14.5134H44.3967ZM44.2134 14.5C44.3041 14.5 44.3671 14.5282 44.3962 14.5501C44.4251 14.5718 44.3967 14.5638 44.3967 14.5134H45.3967C45.3967 14.1792 45.2152 13.9145 44.9968 13.7505C44.7785 13.5866 44.4999 13.5 44.2134 13.5V14.5ZM35.7862 14.5H44.2134V13.5H35.7862V14.5ZM35.603 14.5134C35.603 14.5636 35.5747 14.5716 35.6034 14.55C35.6323 14.5283 35.6952 14.5 35.7862 14.5V13.5C35.4997 13.5 35.221 13.5865 35.0027 13.7505C34.7841 13.9148 34.603 14.1794 34.603 14.5134H35.603ZM35.603 19.1682V14.5134H34.603V19.1682H35.603ZM22.4946 30.6708L35.429 19.5473L34.777 18.7891L21.8426 29.9126L22.4946 30.6708ZM22.489 30.583C22.4913 30.5867 22.4957 30.5957 22.4982 30.6094C22.5007 30.6232 22.5006 30.6375 22.498 30.6507C22.4925 30.6787 22.4807 30.6828 22.4947 30.6708L21.8426 29.9126C21.5045 30.2034 21.381 30.6831 21.6332 31.1003L22.489 30.583ZM22.6833 30.6429C22.6207 30.6429 22.5678 30.6288 22.531 30.611C22.493 30.5926 22.4856 30.5774 22.4892 30.5834L21.633 31.1C21.8578 31.4725 22.2909 31.6429 22.6833 31.6429V30.6429ZM57.3173 30.6429H22.6833V31.6429H57.3173V30.6429ZM57.5109 30.5834C57.5145 30.5774 57.5071 30.5927 57.4691 30.6111C57.4323 30.6289 57.3796 30.6429 57.3173 30.6429V31.6429C57.7094 31.6429 58.1424 31.4724 58.3671 31.1L57.5109 30.5834ZM57.505 30.6708C57.5192 30.6829 57.5075 30.6791 57.502 30.6513C57.4995 30.6381 57.4993 30.6237 57.5018 30.6098C57.5043 30.596 57.5088 30.5869 57.5111 30.583L58.3669 31.1003C58.6196 30.6823 58.4944 30.2028 58.1571 29.9126L57.505 30.6708ZM35.9745 19.3196L23.8609 29.737L24.5129 30.4952L36.6265 20.0778L35.9745 19.3196ZM35.9695 19.3609C35.9695 19.341 35.9746 19.3258 35.9787 19.3176C35.9825 19.31 35.9836 19.3117 35.9749 19.3192L36.6261 20.0781C36.8266 19.9061 36.9695 19.6544 36.9695 19.3609H35.9695ZM35.9695 15.0267V19.3609H36.9695V15.0267H35.9695ZM43.5302 14.5267H36.4695V15.5267H43.5302V14.5267ZM44.0302 19.3609V15.0267H43.0302V19.3609H44.0302ZM44.0258 19.3205C44.0165 19.3124 44.0174 19.3103 44.0211 19.3177C44.0251 19.3257 44.0302 19.3409 44.0302 19.3609H43.0302C43.0302 19.6547 43.1733 19.9053 43.3716 20.0768L44.0258 19.3205ZM56.1383 29.737L44.0247 19.3196L43.3727 20.0778L55.4863 30.4952L56.1383 29.737ZM24.1869 30.6161H55.8123V29.6161H24.1869V30.6161ZM23.2245 34.9656C23.2245 34.8643 23.3065 34.7823 23.4078 34.7823V33.7823C22.7538 33.7823 22.2245 34.3125 22.2245 34.9656H23.2245ZM23.2245 38.8091V34.9656H22.2245V38.8091H23.2245ZM23.4078 38.9923C23.3065 38.9923 23.2245 38.9103 23.2245 38.8091H22.2245C22.2245 39.4621 22.7538 39.9923 23.4078 39.9923V38.9923ZM23.591 38.8091C23.591 38.9103 23.509 38.9923 23.4078 38.9923V39.9923C24.0617 39.9923 24.591 39.4621 24.591 38.8091H23.591ZM23.591 34.9656V38.8091H24.591V34.9656H23.591ZM23.4078 34.7823C23.5088 34.7823 23.591 34.8645 23.591 34.9656H24.591C24.591 34.3123 24.061 33.7823 23.4078 33.7823V34.7823ZM30.0433 33.7823C29.3893 33.7823 28.86 34.3125 28.86 34.9656H29.86C29.86 34.8643 29.942 34.7823 30.0433 34.7823V33.7823ZM31.2265 34.9656C31.2265 34.3125 30.6972 33.7823 30.0433 33.7823V34.7823C30.1445 34.7823 30.2265 34.8643 30.2265 34.9656H31.2265ZM31.2265 38.8091V34.9656H30.2265V38.8091H31.2265ZM30.0433 39.9923C30.6972 39.9923 31.2265 39.4621 31.2265 38.8091H30.2265C30.2265 38.9103 30.1445 38.9923 30.0433 38.9923V39.9923ZM28.86 38.8091C28.86 39.4621 29.3893 39.9923 30.0433 39.9923V38.9923C29.942 38.9923 29.86 38.9103 29.86 38.8091H28.86ZM28.86 34.9656V38.8091H29.86V34.9656H28.86ZM36.5003 34.9656C36.5003 34.8643 36.5823 34.7823 36.6835 34.7823V33.7823C36.0295 33.7823 35.5003 34.3125 35.5003 34.9656H36.5003ZM36.5003 38.8091V34.9656H35.5003V38.8091H36.5003ZM36.6835 38.9923C36.5823 38.9923 36.5003 38.9103 36.5003 38.8091H35.5003C35.5003 39.4621 36.0295 39.9923 36.6835 39.9923V38.9923ZM36.8668 38.8091C36.8668 38.9103 36.7848 38.9923 36.6835 38.9923V39.9923C37.3375 39.9923 37.8668 39.4621 37.8668 38.8091H36.8668ZM36.8668 34.9656V38.8091H37.8668V34.9656H36.8668ZM36.6835 34.7823C36.7845 34.7823 36.8668 34.8645 36.8668 34.9656H37.8668C37.8668 34.3123 37.3368 33.7823 36.6835 33.7823V34.7823ZM43.319 33.7823C42.6657 33.7823 42.1358 34.3123 42.1358 34.9656H43.1358C43.1358 34.8645 43.218 34.7823 43.319 34.7823V33.7823ZM44.5023 34.9656C44.5023 34.3123 43.9723 33.7823 43.319 33.7823V34.7823C43.42 34.7823 43.5023 34.8645 43.5023 34.9656H44.5023ZM44.5023 38.8091V34.9656H43.5023V38.8091H44.5023ZM43.319 39.9923C43.9723 39.9923 44.5023 39.4624 44.5023 38.8091H43.5023C43.5023 38.9101 43.42 38.9923 43.319 38.9923V39.9923ZM42.1358 38.8091C42.1358 39.4624 42.6657 39.9923 43.319 39.9923V38.9923C43.218 38.9923 43.1358 38.9101 43.1358 38.8091H42.1358ZM42.1358 34.9656V38.8091H43.1358V34.9656H42.1358ZM49.7727 34.9656C49.7727 34.8645 49.8549 34.7823 49.9559 34.7823V33.7823C49.3027 33.7823 48.7727 34.3123 48.7727 34.9656H49.7727ZM49.7727 38.8091V34.9656H48.7727V38.8091H49.7727ZM49.9559 38.9923C49.8549 38.9923 49.7727 38.9101 49.7727 38.8091H48.7727C48.7727 39.4624 49.3027 39.9923 49.9559 39.9923V38.9923ZM50.1392 38.8091C50.1392 38.9101 50.057 38.9923 49.9559 38.9923V39.9923C50.6092 39.9923 51.1392 39.4624 51.1392 38.8091H50.1392ZM50.1392 34.9656V38.8091H51.1392V34.9656H50.1392ZM49.9559 34.7823C50.057 34.7823 50.1392 34.8645 50.1392 34.9656H51.1392C51.1392 34.3123 50.6092 33.7823 49.9559 33.7823V34.7823ZM56.5929 33.7823C55.9396 33.7823 55.4096 34.3123 55.4096 34.9656H56.4096C56.4096 34.8645 56.4919 34.7823 56.5929 34.7823V33.7823ZM57.7761 34.9656C57.7761 34.3123 57.2462 33.7823 56.5929 33.7823V34.7823C56.6939 34.7823 56.7761 34.8645 56.7761 34.9656H57.7761ZM57.7761 38.8091V34.9656H56.7761V38.8091H57.7761ZM56.5929 39.9923C57.2462 39.9923 57.7761 39.4624 57.7761 38.8091H56.7761C56.7761 38.9101 56.6939 38.9923 56.5929 38.9923V39.9923ZM55.4096 38.8091C55.4096 39.4624 55.9396 39.9923 56.5929 39.9923V38.9923C56.4919 38.9923 56.4096 38.9101 56.4096 38.8091H55.4096ZM55.4096 34.9656V38.8091H56.4096V34.9656H55.4096Z" fill="white"/>
</svg>
