<svg width="80" height="116" viewBox="0 0 80 116" fill="none" xmlns="http://www.w3.org/2000/svg">
<path d="M37.5437 0.101189C35.3901 0.30138 34.329 0.427815 33.184 0.628006C19.8315 2.94601 8.54865 11.923 3.19086 24.4929C0.701069 30.309 -0.423016 37.3578 0.144279 43.5111C0.806123 50.6863 2.98075 56.8291 6.9203 62.7294C7.42456 63.4775 9.06342 66.0695 10.5447 68.4718C13.9905 74.035 14.5052 74.8673 16.6379 78.3233C17.6149 79.8827 19.0751 82.2533 19.8945 83.5915C20.714 84.919 22.4894 87.7955 23.8341 89.966C27.8157 96.4037 31.4295 102.251 35.7473 109.248C37.985 112.872 39.8759 115.896 39.9495 115.97C40.065 116.086 40.2226 115.896 40.8214 114.916C41.2311 114.263 42.849 111.639 44.4248 109.089C48.5219 102.473 49.0997 101.524 49.8351 100.344C50.1923 99.7648 51.9677 96.8989 53.7747 93.9698C55.5816 91.0407 57.4726 87.9851 57.9768 87.1738C58.4811 86.3625 59.9414 83.9918 61.2335 81.9056C62.5257 79.8194 63.8704 77.6384 64.2276 77.0589C64.5848 76.4794 66.5808 73.2553 68.6609 69.8942C70.741 66.5331 72.7895 63.2562 73.2308 62.6241C76.7081 57.5034 78.9457 51.5082 79.7967 45.0283C80.0908 42.7524 80.0593 37.1998 79.7442 35.0187C79.0298 30.1299 77.8952 26.3789 75.9097 22.3646C71.0877 12.6395 62.7253 5.40098 52.3879 1.99773C47.713 0.469959 41.7774 -0.288657 37.5437 0.101189Z" fill="#3F4043"/>
<path fill-rule="evenodd" clip-rule="evenodd" d="M60.8029 39.007L45.7128 26.0295V20.5989C45.7128 20.2679 45.3557 20 44.9157 20H35.0839C34.6434 20 34.2868 20.2679 34.2868 20.5989V26.0295L19.1967 39.007C18.9911 39.1839 18.9422 39.435 19.0713 39.6486C19.2004 39.8626 19.4842 40 19.7972 40H60.2035C60.516 40 60.7997 39.8626 60.9289 39.6486C61.058 39.435 61.0086 39.1839 60.8029 39.007ZM21.5514 38.8022L35.6839 26.6484C35.8109 26.5394 35.8811 26.3993 35.8811 26.2543V21.1978H44.1186V26.2543C44.1186 26.3993 44.1887 26.539 44.3152 26.6484L58.4477 38.8022H21.5514ZM20.6418 43.663C20.2012 43.663 19.8446 44.0201 19.8446 44.4601V48.9442C19.8446 49.3842 20.2012 49.7413 20.6418 49.7413C21.0823 49.7413 21.4389 49.3842 21.4389 48.9442V44.4601C21.4389 44.0201 21.0818 43.663 20.6418 43.663ZM19.8447 53.5779C19.8447 53.1379 20.2013 52.7808 20.6419 52.7808C21.0819 52.7808 21.439 53.1379 21.439 53.5779V58.0625C21.439 58.5025 21.0824 58.8596 20.6419 58.8596C20.2013 58.8596 19.8447 58.5025 19.8447 58.0625V53.5779ZM28.3847 43.663C27.9441 43.663 27.5875 44.0201 27.5875 44.4601V48.9442C27.5875 49.3842 27.9441 49.7413 28.3847 49.7413C28.8252 49.7413 29.1818 49.3842 29.1818 48.9442V44.4601C29.1818 44.0201 28.8252 43.663 28.3847 43.663ZM27.5874 53.5779C27.5874 53.1379 27.944 52.7808 28.3845 52.7808C28.8251 52.7808 29.1817 53.1379 29.1817 53.5779V58.0625C29.1817 58.5025 28.8251 58.8596 28.3845 58.8596C27.944 58.8596 27.5874 58.5025 27.5874 58.0625V53.5779ZM36.1295 43.663C35.6889 43.663 35.3323 44.0201 35.3323 44.4601V48.9442C35.3323 49.3842 35.6889 49.7413 36.1295 49.7413C36.57 49.7413 36.9266 49.3842 36.9266 48.9442V44.4601C36.9266 44.0201 36.5695 43.663 36.1295 43.663ZM35.3325 53.5779C35.3325 53.1379 35.6891 52.7808 36.1296 52.7808C36.5697 52.7808 36.9268 53.1379 36.9268 53.5779V58.0625C36.9268 58.5025 36.5702 58.8596 36.1296 58.8596C35.6891 58.8596 35.3325 58.5025 35.3325 58.0625V53.5779ZM43.8723 43.663C43.4323 43.663 43.0752 44.0201 43.0752 44.4601V48.9442C43.0752 49.3842 43.4323 49.7413 43.8723 49.7413C44.3124 49.7413 44.6695 49.3842 44.6695 48.9442V44.4601C44.6695 44.0201 44.3124 43.663 43.8723 43.663ZM43.0752 53.5779C43.0752 53.1379 43.4323 52.7808 43.8723 52.7808C44.3123 52.7808 44.6694 53.1379 44.6694 53.5779V58.0625C44.6694 58.5025 44.3123 58.8596 43.8723 58.8596C43.4323 58.8596 43.0752 58.5025 43.0752 58.0625V53.5779ZM51.6152 43.663C51.1752 43.663 50.8181 44.0201 50.8181 44.4601V48.9442C50.8181 49.3842 51.1752 49.7413 51.6152 49.7413C52.0552 49.7413 52.4124 49.3842 52.4124 48.9442V44.4601C52.4124 44.0201 52.0552 43.663 51.6152 43.663ZM50.8179 53.5779C50.8179 53.1379 51.175 52.7808 51.615 52.7808C52.055 52.7808 52.4121 53.1379 52.4121 53.5779V58.0625C52.4121 58.5025 52.055 58.8596 51.615 58.8596C51.175 58.8596 50.8179 58.5025 50.8179 58.0625V53.5779ZM59.3581 43.663C58.9181 43.663 58.561 44.0201 58.561 44.4601V48.9442C58.561 49.3842 58.9181 49.7413 59.3581 49.7413C59.7981 49.7413 60.1553 49.3842 60.1553 48.9442V44.4601C60.1553 44.0201 59.7981 43.663 59.3581 43.663ZM58.561 53.5779C58.561 53.1379 58.9181 52.7808 59.3582 52.7808C59.7982 52.7808 60.1553 53.1379 60.1553 53.5779V58.0625C60.1553 58.5025 59.7982 58.8596 59.3582 58.8596C58.9181 58.8596 58.561 58.5025 58.561 58.0625V53.5779Z" fill="white"/>
<path d="M45.7128 26.0295H45.2128V26.259L45.3868 26.4086L45.7128 26.0295ZM60.8029 39.007L61.129 38.6279L61.1289 38.6279L60.8029 39.007ZM34.2868 26.0295L34.6128 26.4086L34.7868 26.259V26.0295H34.2868ZM19.1967 39.007L18.8707 38.6279L18.8707 38.6279L19.1967 39.007ZM19.0713 39.6486L19.4994 39.3903L19.4992 39.39L19.0713 39.6486ZM60.9289 39.6486L60.501 39.39L60.5008 39.3903L60.9289 39.6486ZM35.6839 26.6484L35.3583 26.269L35.3579 26.2693L35.6839 26.6484ZM21.5514 38.8022L21.2254 38.4231L20.2032 39.3022H21.5514V38.8022ZM35.8811 21.1978V20.6978H35.3811V21.1978H35.8811ZM44.1186 21.1978H44.6186V20.6978H44.1186V21.1978ZM44.3152 26.6484L43.9881 27.0266L43.9892 27.0275L44.3152 26.6484ZM58.4477 38.8022V39.3022H59.7959L58.7737 38.4231L58.4477 38.8022ZM45.3868 26.4086L60.4769 39.3861L61.1289 38.6279L46.0388 25.6505L45.3868 26.4086ZM45.2128 20.5989V26.0295H46.2128V20.5989H45.2128ZM44.9157 20.5C45.0378 20.5 45.1293 20.5378 45.179 20.5751C45.2285 20.6123 45.2128 20.6257 45.2128 20.5989H46.2128C46.2128 20.2411 46.0186 19.9551 45.7795 19.7755C45.5407 19.5961 45.2336 19.5 44.9157 19.5V20.5ZM35.0839 20.5H44.9157V19.5H35.0839V20.5ZM34.7868 20.5989C34.7868 20.6255 34.7713 20.6121 34.8205 20.5751C34.8701 20.5379 34.9615 20.5 35.0839 20.5V19.5C34.7659 19.5 34.4587 19.5961 34.2198 19.7756C33.9807 19.9553 33.7868 20.2414 33.7868 20.5989H34.7868ZM34.7868 26.0295V20.5989H33.7868V26.0295H34.7868ZM19.5227 39.3861L34.6128 26.4086L33.9608 25.6505L18.8707 38.6279L19.5227 39.3861ZM19.4992 39.39C19.4968 39.3861 19.4982 39.387 19.4993 39.3927C19.5003 39.3984 19.5002 39.4046 19.4992 39.4098C19.4982 39.4149 19.4971 39.4154 19.4994 39.4117C19.5017 39.4078 19.5083 39.3985 19.5228 39.3861L18.8707 38.6279C18.5032 38.944 18.3727 39.4595 18.6434 39.9073L19.4992 39.39ZM19.7972 39.5C19.6084 39.5 19.5145 39.4153 19.4994 39.3903L18.6432 39.9069C18.8864 40.31 19.36 40.5 19.7972 40.5V39.5ZM60.2035 39.5H19.7972V40.5H60.2035V39.5ZM60.5008 39.3903C60.4856 39.4154 60.3916 39.5 60.2035 39.5V40.5C60.6403 40.5 61.1138 40.3099 61.357 39.9069L60.5008 39.3903ZM60.4769 39.3861C60.4915 39.3986 60.4981 39.408 60.5005 39.412C60.5029 39.4159 60.5018 39.4154 60.5008 39.4104C60.4998 39.4052 60.4997 39.399 60.5008 39.3931C60.5018 39.3873 60.5032 39.3862 60.501 39.39L61.3568 39.9073C61.6279 39.4587 61.4957 38.9433 61.129 38.6279L60.4769 39.3861ZM35.3579 26.2693L21.2254 38.4231L21.8774 39.1813L36.0099 27.0275L35.3579 26.2693ZM35.3811 26.2543C35.3811 26.2501 35.3816 26.2464 35.3823 26.2437C35.3829 26.241 35.3835 26.2402 35.383 26.2411C35.382 26.2431 35.3761 26.2537 35.3583 26.269L36.0096 27.0279C36.2281 26.8403 36.3811 26.5686 36.3811 26.2543H35.3811ZM35.3811 21.1978V26.2543H36.3811V21.1978H35.3811ZM44.1186 20.6978H35.8811V21.6978H44.1186V20.6978ZM44.6186 26.2543V21.1978H43.6186V26.2543H44.6186ZM44.6423 26.2703C44.6239 26.2544 44.6178 26.2434 44.6167 26.2412C44.6162 26.2401 44.6167 26.241 44.6174 26.2436C44.618 26.2463 44.6186 26.25 44.6186 26.2543H43.6186C43.6186 26.5689 43.7717 26.8394 43.9881 27.0266L44.6423 26.2703ZM58.7737 38.4231L44.6412 26.2693L43.9892 27.0275L58.1217 39.1813L58.7737 38.4231ZM21.5514 39.3022H58.4477V38.3022H21.5514V39.3022ZM20.3446 44.4601C20.3446 44.296 20.4776 44.163 20.6418 44.163V43.163C19.9249 43.163 19.3446 43.7442 19.3446 44.4601H20.3446ZM20.3446 48.9442V44.4601H19.3446V48.9442H20.3446ZM20.6418 49.2413C20.4776 49.2413 20.3446 49.1083 20.3446 48.9442H19.3446C19.3446 49.6602 19.9249 50.2413 20.6418 50.2413V49.2413ZM20.9389 48.9442C20.9389 49.1083 20.8059 49.2413 20.6418 49.2413V50.2413C21.3587 50.2413 21.9389 49.6602 21.9389 48.9442H20.9389ZM20.9389 44.4601V48.9442H21.9389V44.4601H20.9389ZM20.6418 44.163C20.8056 44.163 20.9389 44.2962 20.9389 44.4601H21.9389C21.9389 43.744 21.3579 43.163 20.6418 43.163V44.163ZM20.6419 52.2808C19.9249 52.2808 19.3447 52.862 19.3447 53.5779H20.3447C20.3447 53.4138 20.4777 53.2808 20.6419 53.2808V52.2808ZM21.939 53.5779C21.939 52.8617 21.358 52.2808 20.6419 52.2808V53.2808C20.8057 53.2808 20.939 53.414 20.939 53.5779H21.939ZM21.939 58.0625V53.5779H20.939V58.0625H21.939ZM20.6419 59.3596C21.3588 59.3596 21.939 58.7785 21.939 58.0625H20.939C20.939 58.2266 20.806 58.3596 20.6419 58.3596V59.3596ZM19.3447 58.0625C19.3447 58.7785 19.9249 59.3596 20.6419 59.3596V58.3596C20.4777 58.3596 20.3447 58.2266 20.3447 58.0625H19.3447ZM19.3447 53.5779V58.0625H20.3447V53.5779H19.3447ZM28.0875 44.4601C28.0875 44.296 28.2205 44.163 28.3847 44.163V43.163C27.6677 43.163 27.0875 43.7442 27.0875 44.4601H28.0875ZM28.0875 48.9442V44.4601H27.0875V48.9442H28.0875ZM28.3847 49.2413C28.2205 49.2413 28.0875 49.1083 28.0875 48.9442H27.0875C27.0875 49.6602 27.6677 50.2413 28.3847 50.2413V49.2413ZM28.6818 48.9442C28.6818 49.1083 28.5488 49.2413 28.3847 49.2413V50.2413C29.1016 50.2413 29.6818 49.6602 29.6818 48.9442H28.6818ZM28.6818 44.4601V48.9442H29.6818V44.4601H28.6818ZM28.3847 44.163C28.5488 44.163 28.6818 44.296 28.6818 44.4601H29.6818C29.6818 43.7442 29.1016 43.163 28.3847 43.163V44.163ZM28.3845 52.2808C27.6676 52.2808 27.0874 52.862 27.0874 53.5779H28.0874C28.0874 53.4138 28.2203 53.2808 28.3845 53.2808V52.2808ZM29.6817 53.5779C29.6817 52.862 29.1014 52.2808 28.3845 52.2808V53.2808C28.5487 53.2808 28.6817 53.4138 28.6817 53.5779H29.6817ZM29.6817 58.0625V53.5779H28.6817V58.0625H29.6817ZM28.3845 59.3596C29.1014 59.3596 29.6817 58.7785 29.6817 58.0625H28.6817C28.6817 58.2266 28.5487 58.3596 28.3845 58.3596V59.3596ZM27.0874 58.0625C27.0874 58.7785 27.6676 59.3596 28.3845 59.3596V58.3596C28.2203 58.3596 28.0874 58.2266 28.0874 58.0625H27.0874ZM27.0874 53.5779V58.0625H28.0874V53.5779H27.0874ZM35.8323 44.4601C35.8323 44.296 35.9653 44.163 36.1295 44.163V43.163C35.4125 43.163 34.8323 43.7442 34.8323 44.4601H35.8323ZM35.8323 48.9442V44.4601H34.8323V48.9442H35.8323ZM36.1295 49.2413C35.9653 49.2413 35.8323 49.1083 35.8323 48.9442H34.8323C34.8323 49.6602 35.4125 50.2413 36.1295 50.2413V49.2413ZM36.4266 48.9442C36.4266 49.1083 36.2936 49.2413 36.1295 49.2413V50.2413C36.8464 50.2413 37.4266 49.6602 37.4266 48.9442H36.4266ZM36.4266 44.4601V48.9442H37.4266V44.4601H36.4266ZM36.1295 44.163C36.2933 44.163 36.4266 44.2962 36.4266 44.4601H37.4266C37.4266 43.744 36.8456 43.163 36.1295 43.163V44.163ZM36.1296 52.2808C35.4127 52.2808 34.8325 52.862 34.8325 53.5779H35.8325C35.8325 53.4138 35.9655 53.2808 36.1296 53.2808V52.2808ZM37.4268 53.5779C37.4268 52.8617 36.8458 52.2808 36.1296 52.2808V53.2808C36.2935 53.2808 36.4268 53.414 36.4268 53.5779H37.4268ZM37.4268 58.0625V53.5779H36.4268V58.0625H37.4268ZM36.1296 59.3596C36.8465 59.3596 37.4268 58.7785 37.4268 58.0625H36.4268C36.4268 58.2266 36.2938 58.3596 36.1296 58.3596V59.3596ZM34.8325 58.0625C34.8325 58.7785 35.4127 59.3596 36.1296 59.3596V58.3596C35.9655 58.3596 35.8325 58.2266 35.8325 58.0625H34.8325ZM34.8325 53.5779V58.0625H35.8325V53.5779H34.8325ZM43.5752 44.4601C43.5752 44.2962 43.7085 44.163 43.8723 44.163V43.163C43.1562 43.163 42.5752 43.744 42.5752 44.4601H43.5752ZM43.5752 48.9442V44.4601H42.5752V48.9442H43.5752ZM43.8723 49.2413C43.7085 49.2413 43.5752 49.1081 43.5752 48.9442H42.5752C42.5752 49.6604 43.1562 50.2413 43.8723 50.2413V49.2413ZM44.1695 48.9442C44.1695 49.1081 44.0362 49.2413 43.8723 49.2413V50.2413C44.5885 50.2413 45.1695 49.6604 45.1695 48.9442H44.1695ZM44.1695 44.4601V48.9442H45.1695V44.4601H44.1695ZM43.8723 44.163C44.0362 44.163 44.1695 44.2962 44.1695 44.4601H45.1695C45.1695 43.744 44.5885 43.163 43.8723 43.163V44.163ZM43.8723 52.2808C43.1562 52.2808 42.5752 52.8617 42.5752 53.5779H43.5752C43.5752 53.414 43.7085 53.2808 43.8723 53.2808V52.2808ZM45.1694 53.5779C45.1694 52.8617 44.5885 52.2808 43.8723 52.2808V53.2808C44.0362 53.2808 44.1694 53.414 44.1694 53.5779H45.1694ZM45.1694 58.0625V53.5779H44.1694V58.0625H45.1694ZM43.8723 59.3596C44.5885 59.3596 45.1694 58.7787 45.1694 58.0625H44.1694C44.1694 58.2264 44.0362 58.3596 43.8723 58.3596V59.3596ZM42.5752 58.0625C42.5752 58.7787 43.1562 59.3596 43.8723 59.3596V58.3596C43.7084 58.3596 43.5752 58.2264 43.5752 58.0625H42.5752ZM42.5752 53.5779V58.0625H43.5752V53.5779H42.5752ZM51.3181 44.4601C51.3181 44.2962 51.4514 44.163 51.6152 44.163V43.163C50.8991 43.163 50.3181 43.744 50.3181 44.4601H51.3181ZM51.3181 48.9442V44.4601H50.3181V48.9442H51.3181ZM51.6152 49.2413C51.4514 49.2413 51.3181 49.1081 51.3181 48.9442H50.3181C50.3181 49.6604 50.8991 50.2413 51.6152 50.2413V49.2413ZM51.9124 48.9442C51.9124 49.1081 51.7791 49.2413 51.6152 49.2413V50.2413C52.3314 50.2413 52.9124 49.6604 52.9124 48.9442H51.9124ZM51.9124 44.4601V48.9442H52.9124V44.4601H51.9124ZM51.6152 44.163C51.7791 44.163 51.9124 44.2963 51.9124 44.4601H52.9124C52.9124 43.744 52.3314 43.163 51.6152 43.163V44.163ZM51.615 52.2808C50.8988 52.2808 50.3179 52.8617 50.3179 53.5779H51.3179C51.3179 53.414 51.4511 53.2808 51.615 53.2808V52.2808ZM52.9121 53.5779C52.9121 52.8617 52.3312 52.2808 51.615 52.2808V53.2808C51.7789 53.2808 51.9121 53.414 51.9121 53.5779H52.9121ZM52.9121 58.0625V53.5779H51.9121V58.0625H52.9121ZM51.615 59.3596C52.3312 59.3596 52.9121 58.7787 52.9121 58.0625H51.9121C51.9121 58.2264 51.7789 58.3596 51.615 58.3596V59.3596ZM50.3179 58.0625C50.3179 58.7787 50.8988 59.3596 51.615 59.3596V58.3596C51.4511 58.3596 51.3179 58.2264 51.3179 58.0625H50.3179ZM50.3179 53.5779V58.0625H51.3179V53.5779H50.3179ZM59.061 44.4601C59.061 44.2963 59.1943 44.163 59.3581 44.163V43.163C58.642 43.163 58.061 43.744 58.061 44.4601H59.061ZM59.061 48.9442V44.4601H58.061V48.9442H59.061ZM59.3581 49.2413C59.1943 49.2413 59.061 49.1081 59.061 48.9442H58.061C58.061 49.6604 58.642 50.2413 59.3581 50.2413V49.2413ZM59.6553 48.9442C59.6553 49.1081 59.522 49.2413 59.3581 49.2413V50.2413C60.0743 50.2413 60.6553 49.6604 60.6553 48.9442H59.6553ZM59.6553 44.4601V48.9442H60.6553V44.4601H59.6553ZM59.3581 44.163C59.522 44.163 59.6553 44.2962 59.6553 44.4601H60.6553C60.6553 43.744 60.0743 43.163 59.3581 43.163V44.163ZM59.3582 52.2808C58.642 52.2808 58.061 52.8617 58.061 53.5779H59.061C59.061 53.414 59.1943 53.2808 59.3582 53.2808V52.2808ZM60.6553 53.5779C60.6553 52.8617 60.0743 52.2808 59.3582 52.2808V53.2808C59.522 53.2808 59.6553 53.414 59.6553 53.5779H60.6553ZM60.6553 58.0625V53.5779H59.6553V58.0625H60.6553ZM59.3582 59.3596C60.0743 59.3596 60.6553 58.7787 60.6553 58.0625H59.6553C59.6553 58.2264 59.522 58.3596 59.3582 58.3596V59.3596ZM58.061 58.0625C58.061 58.7787 58.642 59.3596 59.3582 59.3596V58.3596C59.1943 58.3596 59.061 58.2264 59.061 58.0625H58.061ZM58.061 53.5779V58.0625H59.061V53.5779H58.061Z" fill="white"/>
</svg>
