<svg version="1" xmlns="http://www.w3.org/2000/svg" width="1589.333" height="1589.333" viewBox="0 0 1192.000000 1192.000000"><path d="M681.5 4.6c-13.9 9.1-30.2 24.8-41.4 39.9-2.5 3.3-4.8 6.1-5.3 6.3-.4.2-.8.8-.8 1.4 0 .5-.6 1.6-1.2 2.3-2.4 2.7-3.4 4-7.4 10-4.5 6.6-13.6 21.1-14.7 23.5-.4.8-2.3 4.2-4.3 7.5-4.4 7.5-26.5 52.2-26.9 54.5-.1.3-.9 2.3-1.9 4.5-1 2.2-4.2 10.3-7.2 18-3 7.7-5.9 14.9-6.4 16-.9 2.1-10.7 31.9-13.5 41.5-.9 3-2.1 6.6-2.5 8-.8 2.3-3.1 10.2-3.6 12.5-.1.5-.7 3-1.4 5.5s-1.4 5.2-1.5 6c-.1.8-.5 2.2-.8 3-.7 1.6-3.3 11.9-4.1 16.2-.4 1.6-.8 4-1.1 5.5-.3 1.6-1 4.4-1.5 6.3-.5 1.9-1.1 4.6-1.4 6-.3 1.4-1 5-1.6 8-.6 3-1.3 6.6-1.5 8-.3 1.4-.7 3.6-1 5-.3 1.4-.8 4.1-1 6-.3 1.9-.8 4.4-1 5.6-.5 2.4-.7 3.2-3.5 23.1-1.1 7.8-2.1 16-2.3 18.3-.1 2.2-.4 4-.7 4-.3 0-.5 1.9-.5 4.2 0 2.4-.4 7.7-.8 11.8-1.7 18.7-2.1 30.7-2.2 60.5 0 33 .9 52.8 3.1 69 .3 2.2.7 5.6.9 7.5 1 8.9 2 15.8 3.1 21.5.3 1.6.7 4.3 1 6 1.7 9.9 3.6 19.3 5.9 29 .9 3.8 1.8 7.4 1.9 8 .1.5.5 1.6.9 2.2.5.7.6 1.3.3 1.3s.1 2 .8 4.5c.8 2.5 1.2 4.5.8 4.5-.4 0-8.1-5.5-12.7-9.2-29.6-23.5-51.7-47-69.5-73.8-3.4-5.2-7-10.6-7.9-12-1-1.4-2.1-3.2-2.4-4-.4-.8-2.3-4.2-4.3-7.5-4.3-7.5-18.5-36.2-21.3-43.1-2.2-5.9-5.8-14.1-7.2-16.6-.5-1-.9-2.2-.9-2.8 0-.6-.8-2.9-1.9-5.3-1-2.3-3.8-9.2-6.1-15.2-2.3-6.1-4.8-12.4-5.6-14.2-.8-1.7-1.4-3.4-1.4-3.8 0-.3-1.1-3.1-2.5-6.1-1.4-3-2.5-5.8-2.5-6.3 0-.4-1.8-5-4-10.1s-4-9.9-4-10.6c0-.6-.6-1.7-1.4-2.3-1.2-1-1.6-.6-2.2 2.1-1 4.3-.8 3.6-4.3 16.3-2.7 9.6-8 32.3-9.5 41-1.6 8.7-2.6 14.4-3.1 17.5-.3 1.9-.7 4.6-1 6-.3 1.4-.7 4.1-.9 6-.3 1.9-.7 5.1-1 7-.8 4.8-1.5 10.4-2.2 17.5-.3 3.3-.7 7.6-1 9.5-.4 3.7-1.5 19-1.8 25.2-.1 2.1-.5 4-.8 4.3-.3.4-.2 1.9.2 3.5s.6 3.1.2 3.4c-.7.7-.9 38.6-.2 38.6.3 0 .6 4.4.7 9.8.1 8.4 1 23.7 1.3 23.7.2 0 .4 1.4 1.4 9.6.4 3.1.9 6.7 1.1 8 .3 1.3.7 4.3 1 6.7.3 2.4 1 6.4 1.6 9 .6 2.6 1.3 6.3 1.6 8.2.3 1.9 1 4.3 1.5 5.3s.7 2.1.4 2.4c-.3.3-.1 1.3.4 2.3.5.9 1.1 2.8 1.4 4.1 2.4 13.2 31.5 106.4 41.2 132.2 1.4 3.7 2.7 7.3 2.8 8 .2.6.8 2.3 1.4 3.7 1.4 3.4 2.4 6.2 2.8 7.8.1.7 1.2 3.3 2.3 5.8 1.2 2.4 2.1 4.7 2.1 5 0 1.3 10.3 26.9 11.1 27.8.5.6.9 1.6.9 2.3 0 .7 1.1 3.6 2.4 6.5 1.3 2.9 3.6 8.2 5 11.8 1.5 3.6 3.3 7.8 4.1 9.5.7 1.6 2 4.6 2.8 6.5.8 1.9 2.6 6 4 9 1.3 3 4.8 10.9 7.7 17.5 2.9 6.6 6.4 14.4 7.8 17.4 1.3 3 2.5 6 2.7 6.5.1.6.8 2.4 1.5 4.1 9.3 22.1 14.8 44.2 16.5 66.5.4 4.6.8 8.7 1 9 .2.3 0 1.2-.4 1.8-.4.7-.5 3.3-.1 5.7.4 2.5.5 4.7.2 4.9-.2.3-.6 4.5-.8 9.4-.2 5-.6 10.5-.9 12.3-1.9 11.5-3.7 20.3-5 23.8-.8 2.3-1.2 4.1-.9 4.1.2 0-.2 1.3-1.1 3-.9 1.6-1.2 3-.9 3 .4 0 0 .8-.8 1.7-.9 1-1.9 2.9-2.3 4.3-.9 3.1-5.2 10.9-7.1 13.1-.8.8-1.4 1.9-1.4 2.4 0 2.1-14.5 17.7-23.1 24.8-10.7 8.9-30.6 20.4-47.4 27.2-4.9 2-10.3 4.3-12 5-4.4 1.9-11.8 4.6-13.5 5-5.2 1.2-23.9 8.2-24.1 9-.5 1.4 19.9 11.5 29.1 14.4 4.1 1.3 8.2 2.6 9 2.9.8.3 2.4.7 3.5.9 1.1.2 5.4 1 9.5 1.9 11.5 2.4 17.1 2.8 34.5 2.8 14.3 0 22.8-.5 30.5-1.7 1.4-.3 4.9-.8 7.9-1.2 3-.3 6.2-.9 7.3-1.1 1-.2 2.8-.6 4.1-.9 1.2-.3 3.3-.7 4.7-1 1.4-.3 3.5-.7 4.8-.9 8.6-1.8 38.2-11.1 44.9-14.1 1.7-.8 3.4-1.5 3.7-1.5.3 0 2.5-.9 4.9-1.9 2.3-1.1 7.1-3.2 10.7-4.7 11.1-4.5 47.2-23.2 47.8-24.7.2-.4.8-.7 1.3-.7.6 0 3.7-1.8 7-4s6.2-4 6.5-4c.2 0 2.7-1.6 5.4-3.5s5.2-3.5 5.4-3.5c.9 0 26.1-18.3 26.4-19.1.2-.5.8-.9 1.3-.9.8 0 15.6-11.3 16.9-12.9.3-.3 4-3.5 8.4-7 4.3-3.6 9.9-8.3 12.5-10.5 7.5-6.6 43.2-42.6 49.1-49.5 3-3.5 6-6.9 6.5-7.5.6-.6 2.8-3.4 5-6.1 2.1-2.8 4.2-5.2 4.5-5.5.3-.3 2.8-3.4 5.5-7 2.8-3.5 5.4-6.9 5.8-7.5.7-.9 9.8-13.5 15.4-21.5 4.1-5.7 13-20.2 19-31 3.5-6.3 6.8-12.2 7.3-13 1-1.7 7.3-14.2 7.5-15 0-.3 1.3-3 2.7-6 5.8-12 18.3-45 17.2-45-.3 0 0-.8.5-1.8.8-1.5 5.1-17 6.6-24.1.3-1.1.7-3.1 1-4.3.7-3 1.6-7.8 2-10.3.1-1.1.6-4.3 1-7 .4-2.8 1-5.9 1.3-7 .9-3.4 1.3-63.3.4-63.9-.4-.3-6.4 6.9-13.3 16-6.8 9-13.6 17.9-15.1 19.6-1.4 1.8-6.6 8.2-11.4 14.3-10.1 12.6-24.4 29.3-32.4 37.9-10.5 11.1-23.1 23.6-23.9 23.6-.5 0-1.1.6-1.4 1.3-.3.8-4.7 4.9-9.9 9.2-5.1 4.2-10.3 8.6-11.5 9.6-1.2 1-4.2 3.1-6.5 4.6-2.4 1.5-4.5 3-4.8 3.3-1.5 1.7-16.8 10.5-24.1 13.8-12.4 5.9-14.8 6.8-21.4 8.7-7.4 2.1-6.2 1.9-18 4.1-4.4.8-23.7 1.4-24.7.8-.7-.5 5.4-8.5 11.2-14.5.8-.9 2.4-2.9 3.5-4.5 1.1-1.5 3.4-4.4 5-6.5 8.8-10.9 29-40.8 31.8-46.9.4-.8 1.8-3.3 3.2-5.5 7.1-11.5 20.9-40.6 26.5-56 7.4-20.3 15.4-47 16.7-56 .2-1.7.8-4.6 1.3-6.5.5-1.9 1.2-5.1 1.5-7 .3-1.9 1-6 1.5-9 5.3-30.5 7.4-63.5 7.3-113 0-15.1-.3-30-.6-33-2.1-18.5-2.9-24.9-4.7-35-.5-3-1.2-7.1-1.5-9-.3-1.9-1-5.1-1.5-7-.5-1.9-1.1-4.9-1.3-6.5-.3-1.7-1-5.3-1.7-8-.6-2.8-1.3-5.7-1.5-6.5-.4-2.2-7.3-28.6-8.9-34.5-1.9-6.9-5.7-19.5-10.6-35.5-2.3-7.4-5-16.2-6-19.5-2.3-7.6-4.8-15.5-7-22.5-1-3-2.8-8.9-4-13-1.2-4.1-2.5-8.6-3-10-2.5-7-11.5-39.3-12.5-44.5-.2-1.1-.4-2-.5-2-.2 0-.8-2.1-1.9-7.5-.6-2.5-1.2-5.4-1.5-6.5-2.9-12.1-5.4-24-6.1-28.5-.3-2-.7-4.5-.9-5.5-.2-1.1-.7-4-1.1-6.5-.4-2.5-.9-5.2-1-6-.7-3.9-2.3-16-3-22.5-1.5-13.6-2-24.6-2-47.5.1-25.9.6-35.1 3-53 .4-3 .9-6.6 1.1-8 .1-1.4.5-3.6.8-5 .3-1.4.8-4.1 1-6 .3-1.9.8-4.6 1.1-6 .3-1.4.8-3.9 1-5.5.3-1.7.9-3.9 1.2-5 .3-1.1.7-2.9.8-4 .8-6.9 10.2-38.1 17.2-57.3C687.1 6.4 689 .7 688.8.5c-.2-.3-3.5 1.6-7.3 4.1z"/></svg>